<?xml version="1.0" encoding="UTF-8" standalone="no"?>
<!-- Created with Inkscape (http://www.inkscape.org/) -->
<svg
   xmlns:dc="http://purl.org/dc/elements/1.1/"
   xmlns:cc="http://web.resource.org/cc/"
   xmlns:rdf="http://www.w3.org/1999/02/22-rdf-syntax-ns#"
   xmlns:svg="http://www.w3.org/2000/svg"
   xmlns="http://www.w3.org/2000/svg"
   xmlns:sodipodi="http://sodipodi.sourceforge.net/DTD/sodipodi-0.dtd"
   xmlns:inkscape="http://www.inkscape.org/namespaces/inkscape"
   width="681.73224"
   height="484.01575"
   id="svg2"
   sodipodi:version="0.32"
   inkscape:version="0.45"
   sodipodi:docbase="D:\Jerome\jerome\auto\Classe A"
   sodipodi:docname="Classe A W169.svg"
   inkscape:output_extension="org.inkscape.output.svg.inkscape"
   version="1.0"
   sodipodi:modified="TRUE"
   inkscape:export-filename="D:\Jerome\jerome\auto\Classe A\Classe A W169.png"
   inkscape:export-xdpi="90"
   inkscape:export-ydpi="90">
  <defs
     id="defs4" />
  <sodipodi:namedview
     id="base"
     pagecolor="#ffffff"
     bordercolor="#666666"
     borderopacity="1.0"
     inkscape:pageopacity="0.0"
     inkscape:pageshadow="2"
     inkscape:zoom="0.80298942"
     inkscape:cx="394.3157"
     inkscape:cy="266.19328"
     inkscape:document-units="px"
     inkscape:current-layer="layer1"
     showguides="true"
     inkscape:guide-bbox="true"
     inkscape:window-width="1280"
     inkscape:window-height="744"
     inkscape:window-x="-4"
     inkscape:window-y="-4"
     width="19.24cm"
     height="13.66cm"
     units="cm"
     showgrid="false" />
  <metadata
     id="metadata7">
    <rdf:RDF>
      <cc:Work
         rdf:about="">
        <dc:format>image/svg+xml</dc:format>
        <dc:type
           rdf:resource="http://purl.org/dc/dcmitype/StillImage" />
      </cc:Work>
    </rdf:RDF>
  </metadata>
  <g
     inkscape:label="Calque 1"
     inkscape:groupmode="layer"
     id="layer1"
     transform="translate(-36.237719,-110.38029)">
    <g
       id="g2425"
       transform="translate(32.379007,37.360392)">
      <path
         id="path2238"
         d="M 37.360392,349.98681 L 36.737719,359.94958 L 37.983066,365.55364 L 42.964451,371.15769 L 49.191183,376.76175 L 55.417915,380.49779 L 64.758014,386.10185 L 67.87138,387.96987 L 67.248706,383.61116 L 64.758014,377.38443 L 61.644647,372.40304 L 52.304549,366.17631 L 42.964451,357.45888 L 37.360392,349.98681 z "
         style="fill:none;fill-rule:evenodd;stroke:#000000;stroke-width:1px;stroke-linecap:butt;stroke-linejoin:miter;stroke-opacity:1" />
      <path
         sodipodi:nodetypes="ccccccccccccccccccccccccccccccccccccccccccccccccccccccccccc"
         id="path2240"
         d="M 42.653115,404.15937 L 42.030441,395.44195 L 41.407768,390.46056 L 40.473758,382.98848 L 39.539748,379.56379 L 38.917075,376.76175 L 36.737719,361.50626 L 38.294402,366.17631 L 49.191183,376.76175 L 67.87138,387.65853 L 67.248706,383.92249 L 66.626033,381.4318 L 63.824004,374.89373 L 61.021974,371.78037 L 54.483906,368.35566 L 48.879847,363.06294 L 43.275788,358.08156 L 37.360392,349.67547 L 37.983066,348.74146 L 40.162422,345.93943 L 42.964451,337.53334 L 45.143808,332.24062 L 48.56851,326.32522 L 51.37054,321.96651 L 54.483906,316.05111 L 58.219945,310.75839 L 60.087964,307.64503 L 61.955984,304.843 L 65.380687,299.86161 L 68.182717,296.12558 L 70.984746,292.70087 L 73.164102,290.52151 L 75.966131,287.71948 L 79.390834,284.60612 L 82.5042,281.80409 L 86.551576,278.37939 L 84.37222,282.42676 L 83.43821,285.54013 L 82.5042,288.96483 L 80.947517,292.70087 L 79.702171,297.68226 L 78.768161,301.41829 L 77.211478,309.51305 L 75.966131,312.93775 L 74.720785,317.29646 L 72.852765,323.83453 L 71.607419,328.81592 L 70.362072,333.17463 L 69.116726,338.15601 L 68.494053,342.51473 L 67.87138,345.31676 L 66.93737,346.25077 L 63.201331,344.07141 L 57.908608,340.64671 L 53.861232,337.222 L 50.747866,332.86329 L 49.813857,330.06126 L 49.50252,326.63656 L 49.50252,325.07988"
         style="fill:none;fill-rule:evenodd;stroke:#000000;stroke-width:1px;stroke-linecap:butt;stroke-linejoin:miter;stroke-opacity:1" />
      <path
         sodipodi:nodetypes="cccccccccccccccccccccccccccccccccccccscccccccccccccccccccccc"
         id="path2244"
         d="M 77.834151,319.47582 L 75.966131,321.96651 L 75.032121,324.4572 L 75.032122,324.14587 L 73.475438,329.12725 L 72.852765,332.24062 L 72.541429,334.10864 L 71.918755,336.59933 L 71.607418,339.40136 L 71.296083,341.89205 L 70.984746,345.00542 L 70.673409,347.49611 L 70.362072,350.29814 L 70.362072,352.78883 L 70.362072,355.9022 L 70.362072,358.39289 L 70.984746,362.12893 L 72.230092,364.61963 L 74.409448,367.73299 L 77.211478,370.53502 L 81.258854,373.33705 L 86.551576,377.07309 L 93.712318,381.4318 L 102.11841,385.47918 L 110.83583,388.90388 L 120.7986,392.01725 L 129.51603,394.1966 L 139.79014,396.37596 L 150.06424,397.62131 L 160.64968,398.86665 L 164.38573,399.17799 L 169.98979,397.93264 L 172.79182,396.99863 L 175.90518,395.13062 L 178.39587,392.63992 L 180.88657,389.83789 L 183.06592,387.03586 C 183.06592,387.03586 185.07854,384.08922 186.17929,382.98848 C 187.1133,382.05447 188.66998,379.56378 188.66998,379.56378 L 191.16067,376.13908 L 194.27404,371.46903 L 197.38741,366.17631 L 199.56676,361.50626 L 199.8781,357.77022 L 199.25543,355.27953 L 196.76473,353.41151 L 193.34003,352.16616 L 189.29266,350.92081 L 181.1979,348.74146 L 171.23513,346.25077 L 157.84766,342.82606 L 145.70553,339.7127 L 134.49741,336.59933 L 122.97796,333.48596 L 112.70385,330.3726 L 103.98643,327.57057 L 96.825684,325.07988 L 89.664942,322.58918 L 81.881527,320.40983 L 77.834151,319.47582 z "
         style="fill:none;fill-rule:evenodd;stroke:#000000;stroke-width:1px;stroke-linecap:butt;stroke-linejoin:miter;stroke-opacity:1" />
      <path
         sodipodi:nodetypes="ccccccccccccc"
         id="path2248"
         d="M 75.032121,324.14587 L 80.63618,326.63656 L 87.174249,329.43859 L 94.646328,332.55195 L 102.11841,335.35398 L 111.76984,339.40136 L 123.60063,342.82606 L 135.74276,346.5621 L 149.75291,349.67547 L 167.49909,353.41151 L 182.75459,357.14755 L 192.40602,359.01557 L 199.56676,359.94958"
         style="fill:none;fill-rule:evenodd;stroke:#000000;stroke-width:1px;stroke-linecap:butt;stroke-linejoin:miter;stroke-opacity:1" />
      <path
         sodipodi:nodetypes="cccccccccccccccccccccccc"
         id="path2250"
         d="M 120.7986,348.11879 L 117.06256,348.11879 L 114.26053,349.9868 L 111.76984,352.78884 L 109.90182,356.52487 L 108.65647,360.88359 L 108.0338,363.99695 L 108.0338,366.79898 L 108.65647,369.60101 L 109.59048,372.40304 L 111.76984,375.20507 L 113.63786,376.76175 L 116.36231,377.05472 L 118.93059,375.51641 L 121.10994,373.33705 L 123.2893,369.91235 L 124.84598,365.86497 L 125.77999,361.19492 L 126.40266,358.08156 L 125.46865,354.96819 L 124.53464,352.16616 L 123.91197,350.92081 L 122.66662,349.36413 L 120.7986,348.11879 z "
         style="fill:none;fill-rule:evenodd;stroke:#000000;stroke-width:1px;stroke-linecap:butt;stroke-linejoin:miter;stroke-opacity:1" />
      <path
         id="path2255"
         d="M 120.48727,348.43012 L 113.9492,360.88359 L 107.72246,366.48764 L 108.34514,366.79898 L 113.9492,363.99695 L 121.42128,372.0917 L 114.26053,362.44027"
         style="fill:none;fill-rule:evenodd;stroke:#000000;stroke-width:1px;stroke-linecap:butt;stroke-linejoin:miter;stroke-opacity:1" />
      <path
         id="path2257"
         d="M 122.35529,371.15769 L 116.43989,361.19492 L 120.7986,348.74146"
         style="fill:none;fill-rule:evenodd;stroke:#000000;stroke-width:1px;stroke-linecap:butt;stroke-linejoin:miter;stroke-opacity:1" />
      <path
         id="path2259"
         d="M 116.75123,361.50626 L 114.57187,361.8176 L 113.9492,361.19492"
         style="fill:none;fill-rule:evenodd;stroke:#000000;stroke-width:1px;stroke-linecap:butt;stroke-linejoin:miter;stroke-opacity:1" />
      <path
         sodipodi:nodetypes="ccccccccccccccccccccccccccc"
         id="path2263"
         d="M 120.48727,346.25077 L 118.30791,346.25077 L 115.50588,346.87344 L 113.32652,348.11879 L 111.4585,349.9868 L 109.59048,352.78883 L 108.34514,354.96819 L 107.09979,358.08156 L 106.47712,361.19492 L 105.85445,365.86497 L 106.16578,368.35566 L 106.78846,370.53502 L 107.72246,373.02571 L 109.90182,376.45042 L 112.70385,378.31844 L 116.12855,379.25245 L 119.24192,378.31843 L 121.10994,376.45042 L 122.97796,374.27106 L 125.77999,370.53502 L 127.02534,367.11031 L 127.95934,362.75161 L 128.27068,359.94958 L 128.27068,355.9022 L 127.02533,351.54349 L 124.53464,348.11879 L 120.48727,346.25077 z "
         style="fill:none;fill-rule:evenodd;stroke:#000000;stroke-width:1px;stroke-linecap:butt;stroke-linejoin:miter;stroke-opacity:1" />
      <path
         sodipodi:nodetypes="ccccccccccc"
         id="path2270"
         d="M 72.852765,332.55195 L 77.211478,335.35398 L 79.702171,336.59933 L 84.060883,339.40136 L 88.730932,342.20339 L 93.089645,344.07141 L 97.448357,346.25077 L 101.1844,347.49611 L 106.78846,350.29814 L 110.21316,351.54349 L 109.90182,351.85482"
         style="fill:none;fill-rule:evenodd;stroke:#000000;stroke-width:1px;stroke-linecap:butt;stroke-linejoin:miter;stroke-opacity:1" />
      <path
         id="path2272"
         d="M 194.27404,371.46903 L 184.31127,370.22368 L 176.83919,368.35566 L 167.18776,366.79898 L 155.97964,364.30829 L 144.77152,361.8176 L 132.00672,358.39289 L 128.58202,357.45888"
         style="fill:none;fill-rule:evenodd;stroke:#000000;stroke-width:1px;stroke-linecap:butt;stroke-linejoin:miter;stroke-opacity:1" />
      <path
         id="path2274"
         d="M 71.296082,342.82606 L 78.768161,349.05279 L 85.617566,353.10017 L 94.023654,357.14755 L 102.11841,361.19492 L 105.85445,362.44027 L 105.85445,362.44027"
         style="fill:none;fill-rule:evenodd;stroke:#000000;stroke-width:1px;stroke-linecap:butt;stroke-linejoin:miter;stroke-opacity:1" />
      <path
         id="path2276"
         d="M 126.09132,369.60101 L 139.79014,373.33705 L 155.6683,376.76175 L 173.10315,379.87512 L 181.50924,381.4318 L 185.55662,382.05447 L 186.17929,381.74314"
         style="fill:none;fill-rule:evenodd;stroke:#000000;stroke-width:1px;stroke-linecap:butt;stroke-linejoin:miter;stroke-opacity:1" />
      <path
         id="path2278"
         d="M 70.984746,355.59086 L 75.654795,359.94958 L 80.63618,362.75161 L 87.174249,367.11032 L 96.203011,372.40304 L 105.85445,376.45042 L 118.30791,381.4318 L 131.69538,384.8565 C 131.69538,384.8565 148.50756,388.59254 149.75291,388.90388 C 150.99825,389.21522 163.14038,391.39457 163.14038,391.39457 L 172.79182,392.63992 L 175.90518,392.95126 L 177.7732,392.63992"
         style="fill:none;fill-rule:evenodd;stroke:#000000;stroke-width:1px;stroke-linecap:butt;stroke-linejoin:miter;stroke-opacity:1" />
      <path
         sodipodi:nodetypes="ccccccccccccccccccccccccccccccccccccccccccccc"
         id="path2281"
         d="M 182.13191,415.05615 L 179.95256,415.05615 L 176.83919,414.74482 L 174.97117,415.67883 L 172.79182,416.61284 L 171.23513,418.16952 L 169.67845,419.41487 L 168.12177,421.28289 L 166.56508,423.77358 L 166.25375,425.01893 L 165.94241,425.95294 L 166.87642,426.57561 L 170.30112,427.82095 L 174.03716,428.44363 L 178.08454,429.68897 L 184.93394,430.93432 L 199.8781,434.04769 L 208.90686,436.22704 L 219.80364,438.4064 L 228.8324,439.65175 L 242.21988,441.51977 L 255.91869,442.76511 L 274.91022,442.45378 L 284.87299,441.51977 L 292.34507,440.58576 L 295.45844,439.65175 L 298.88314,438.4064 L 302.93052,436.53838 L 306.04388,434.04769 L 311.02527,429.37764 L 314.44997,425.01893 L 316.62933,421.28289 L 314.76131,420.34888 L 311.95928,420.34888 L 301.37383,421.28289 L 286.11834,423.46224 L 276.4669,424.08492 L 268.99483,424.08492 L 258.40938,423.77358 L 243.77656,423.15091 L 232.56844,422.2169 L 216.37894,420.34888 L 200.18944,417.85818 L 187.42464,415.99016 L 182.13191,415.05615 z "
         style="fill:none;fill-rule:evenodd;stroke:#000000;stroke-width:1px;stroke-linecap:butt;stroke-linejoin:miter;stroke-opacity:1" />
      <path
         id="path2283"
         d="M 42.653115,404.15937 L 45.766481,409.14076 L 52.927223,415.99016 L 58.219945,420.34888 L 65.06935,425.01893 L 76.900141,430.62299"
         style="fill:none;fill-rule:evenodd;stroke:#000000;stroke-width:1px;stroke-linecap:butt;stroke-linejoin:miter;stroke-opacity:1" />
      <path
         sodipodi:nodetypes="cccccccccccccccccccccccccccccccccccccccccc"
         id="path2285"
         d="M 47.6345,411.32012 L 51.681876,418.16952 L 59.776628,427.82096 L 70.362072,436.22704 L 75.966131,439.34041 L 78.456824,440.58576 L 81.57019,440.27442 L 84.994893,439.96308 L 94.957664,445.56714 L 113.63786,456.15259 L 129.51603,462.69066 L 156.91365,472.96476 L 167.49909,476.07813 L 173.72582,478.56882 L 176.83919,479.81417 L 181.82058,484.17288 L 183.6886,488.22026 L 189.29266,491.02229 L 197.69874,493.82432 L 207.03884,496.31501 L 221.36033,500.05105 L 231.94577,502.2304 L 246.26725,504.7211 L 255.60735,505.34377 L 269.6175,506.58912 L 283.93898,506.90045 L 292.96774,506.58912 L 297.32646,505.96644 L 302.61918,504.40976 L 307.28923,502.2304 L 309.46858,498.8057 L 310.71393,496.93768 L 302.61918,498.8057 L 300.75116,499.42837 L 290.16571,500.67372 L 273.66487,500.67372 L 255.91869,500.36238 L 244.39923,499.11704 L 221.36033,495.06966 L 206.10483,491.02229 L 188.35865,485.72956 L 178.39587,481.68219"
         style="fill:none;fill-rule:evenodd;stroke:#000000;stroke-width:1px;stroke-linecap:butt;stroke-linejoin:miter;stroke-opacity:1" />
      <path
         id="path2287"
         d="M 81.881527,438.09506 L 75.654795,435.91571 L 69.116726,432.80234 L 61.021974,428.44363 L 58.531281,426.88695 L 58.531281,427.19828"
         style="fill:none;fill-rule:evenodd;stroke:#000000;stroke-width:1px;stroke-linecap:butt;stroke-linejoin:miter;stroke-opacity:1" />
      <path
         sodipodi:nodetypes="ccccccccccccccccccccccccccccccccccccccccccccccc"
         id="path2289"
         d="M 166.56508,470.16273 L 172.16914,472.96476 L 178.39587,475.45546 L 188.66998,478.88016 L 196.4534,481.05951 L 207.97285,483.86154 L 220.11498,486.0409 L 235.99315,487.59758 L 249.69196,487.59758 L 260.90007,485.41823 L 263.7021,483.86154 L 267.12681,481.05951 L 269.92884,477.01214 L 273.35354,471.09674 L 274.91022,467.3607 L 275.53289,464.24734 L 275.53289,461.44531 L 274.91022,459.88862 L 273.66487,458.33195 L 271.48552,457.70927 L 268.06082,457.70927 L 263.39077,457.0866 L 253.73933,456.77526 L 244.0879,455.52991 L 234.43646,454.28457 L 225.4077,453.03922 L 220.73765,452.10521 L 219.18097,452.72788 L 217.00161,453.97323 L 216.0676,455.84125 L 215.44493,457.70927 L 215.13359,458.95462 L 213.88825,462.37932 L 212.95424,465.80402 L 212.6429,468.29471 L 212.02023,471.09674 L 212.02023,473.58744 L 213.88825,475.76679 L 219.18097,477.01214 L 226.96438,477.94615 L 234.43646,479.1915 L 247.20126,480.74818 L 255.60735,481.05951 L 260.2774,480.74818 L 264.94745,478.88016 L 271.17418,474.21011 L 272.10819,473.2761"
         style="fill:none;fill-rule:evenodd;stroke:#000000;stroke-width:1px;stroke-linecap:butt;stroke-linejoin:miter;stroke-opacity:1" />
      <path
         id="path2291"
         d="M 225.4077,453.03922 L 220.73765,452.10521 L 214.19958,451.1712 L 202.99147,448.68051 L 191.16067,446.18982 L 172.79182,441.20843 L 172.79182,441.20843"
         style="fill:none;fill-rule:evenodd;stroke:#000000;stroke-width:1px;stroke-linecap:butt;stroke-linejoin:miter;stroke-opacity:1" />
      <path
         id="path2293"
         d="M 62.267321,399.48932 L 64.13534,404.78205 L 66.00336,410.07477 L 70.050736,419.10353 L 73.475438,423.77358 L 77.211478,427.82096 L 85.617566,433.11368 L 98.382367,439.65175 L 109.27915,445.87848 L 124.84598,452.41655 L 141.96949,458.64328 L 164.38573,466.42669 L 173.10315,468.60605 L 178.70721,469.22872 L 183.06592,467.98338 L 185.55662,466.73803 L 187.42464,464.87001 L 189.29266,461.13397 L 190.22666,457.0866 L 189.91533,453.97323 L 188.66998,451.1712 L 187.42464,449.92585 L 184.62261,448.99184 L 181.50924,448.36917 L 176.83919,447.12383 L 171.54647,445.87848 L 163.45172,443.38779 L 156.60231,441.20843 L 145.70553,437.78373 L 127.64801,431.24566 L 111.14717,424.70759 L 97.448357,418.48086 L 81.57019,411.00878 L 74.409448,406.65007 L 62.267321,399.48932 z "
         style="fill:none;fill-rule:evenodd;stroke:#000000;stroke-width:1px;stroke-linecap:butt;stroke-linejoin:miter;stroke-opacity:1" />
      <path
         sodipodi:nodetypes="ccccccccccccccccc"
         id="path2296"
         d="M 51.993212,402.91402 L 55.417915,406.02739 L 60.087965,409.76343 L 63.201331,411.94279 L 63.824004,411.00878 L 62.889994,407.89541 L 61.333311,402.60269 L 59.465291,397.93264 L 58.531281,394.50794 L 56.351925,391.39457 L 54.172569,389.52655 L 50.747866,387.3472 L 47.011827,384.54517 L 44.209798,382.05447 L 42.030441,379.56378 L 41.096432,379.87512 L 40.785095,382.36581"
         style="fill:none;fill-rule:evenodd;stroke:#000000;stroke-width:1px;stroke-linecap:butt;stroke-linejoin:miter;stroke-opacity:1" />
      <path
         sodipodi:nodetypes="ccccccc"
         id="path2298"
         d="M 45.766481,384.23383 L 45.766481,388.59254 L 45.766481,391.39457 L 46.70049,395.13062 L 48.257174,397.93264 L 49.50252,400.73467 L 52.927223,403.84804"
         style="fill:none;fill-rule:evenodd;stroke:#000000;stroke-width:1px;stroke-linecap:butt;stroke-linejoin:miter;stroke-opacity:1" />
      <path
         sodipodi:nodetypes="cccccccccccccccccccccccccccccccccccccccccccccccccccc"
         id="path2301"
         d="M 296.08111,505.96644 L 298.26047,504.09842 L 301.0625,501.29639 L 302.93052,498.18303 L 304.79854,492.57897 L 306.35522,485.41823 L 308.22324,477.94615 L 310.71393,468.29471 L 314.13863,456.46392 L 316.62933,447.43516 L 319.43136,439.34041 L 321.92205,430.93432 L 325.34675,421.59422 L 328.46012,415.67883 L 331.26215,408.82942 L 334.68685,402.29135 L 337.48888,396.99863 L 341.22492,391.08324 L 344.33828,385.79051 L 348.697,380.49779 L 352.1217,375.82774 L 356.48041,370.84636 L 361.4618,366.17631 L 365.50917,362.44027 L 369.55655,359.3269 L 373.91526,355.9022 L 377.96264,353.10017 L 381.076,357.14755 L 382.94402,360.88359 L 381.38734,361.8176 L 377.33996,364.30829 L 372.04724,367.73299 L 367.37719,372.0917 L 362.39581,376.45042 L 357.10308,382.36581 L 352.43304,387.3472 L 348.38566,393.57393 L 343.40427,401.66868 L 339.3569,409.14076 L 337.17754,413.49947 L 333.75284,420.97155 L 330.63947,428.13229 L 327.83744,436.22704 L 325.34675,442.45378 L 322.85606,451.79387 L 320.6767,459.26595 L 318.49735,469.22872 L 315.69532,481.05951 L 314.13863,487.28625 L 313.20462,491.02229 L 310.4026,496.62635 L 309.46858,497.24902"
         style="fill:none;fill-rule:evenodd;stroke:#000000;stroke-width:1px;stroke-linecap:butt;stroke-linejoin:miter;stroke-opacity:1" />
      <path
         sodipodi:nodetypes="cccccccccccccccccccccccccccccccccccccccc"
         id="path2304"
         d="M 199.56676,388.90388 L 200.81211,386.41319 L 202.99147,383.61116 L 205.7935,381.4318 L 211.08622,377.38443 L 216.69027,373.33705 L 223.53968,368.667 L 231.01176,363.68562 L 240.35186,357.77022 L 250.9373,351.54349 L 260.2774,346.87344 L 269.30616,342.82606 L 277.71225,339.09002 L 291.09972,334.73131 L 301.68517,332.55195 L 313.51596,330.06126 L 320.05403,329.43859 L 326.5921,329.43859 L 332.50749,330.06126 L 338.73422,330.99527 L 345.27229,333.17463 L 351.81036,335.35398 L 358.03709,339.09002 L 362.08447,341.58072 L 363.95249,342.82606 L 358.9711,348.11879 L 349.94234,355.59086 L 344.96096,359.3269 L 337.80022,363.68562 L 327.83744,369.60101 L 314.76131,376.13908 L 302.93052,380.80913 L 284.25032,387.65853 L 269.6175,390.7719 L 253.11666,393.57393 L 237.23849,393.26259 L 226.96438,393.26259 L 217.62429,392.32858 L 206.7275,390.46056 L 199.56676,388.90388 z "
         style="fill:none;fill-rule:evenodd;stroke:#000000;stroke-width:1px;stroke-linecap:butt;stroke-linejoin:miter;stroke-opacity:1" />
      <path
         id="path2306"
         d="M 364.26383,343.1374 L 368.62254,345.62809 L 372.04724,347.80745 L 375.16061,350.60948 L 377.33996,352.4775 L 377.96264,353.41151 L 381.69868,351.23215 L 385.74605,349.36413 L 389.79343,347.80745 L 393.21813,346.87344 L 398.19952,345.93943 L 404.11491,345.31676 L 408.47362,345.31676 L 414.70036,346.25077 L 418.4364,347.49611"
         style="fill:none;fill-rule:evenodd;stroke:#000000;stroke-width:1px;stroke-linecap:butt;stroke-linejoin:miter;stroke-opacity:1" />
      <path
         id="path2308"
         d="M 383.87803,360.57225 L 388.54808,358.70423 L 393.8408,356.83621 L 399.7562,355.9022 L 405.98293,355.9022 L 411.89833,356.83621 L 417.50239,359.3269 L 423.10644,363.06294 L 427.46516,368.97834 L 430.26719,373.64839 L 432.44654,380.49779 L 433.06922,385.79051 L 433.06922,391.70591 L 433.38055,398.55531 L 433.06922,404.78205 L 432.13521,409.76343 L 430.88986,415.67883 L 429.02184,422.83957 L 427.46516,428.75497 L 425.2858,434.9817 L 422.17243,438.4064 L 422.48377,442.14244 L 431.82387,434.35902 L 436.49392,431.24566 L 442.09798,427.19828 L 450.19273,422.2169 L 463.26887,414.74482 L 487.55312,401.04601 L 513.39406,386.10185 L 528.02688,377.69576 L 561.3399,359.3269 L 572.23668,353.72284 L 578.15207,350.60948 L 583.4448,347.80745 L 588.11484,345.31676 L 592.47356,343.1374 L 593.40757,340.64671 L 593.40757,337.53334 L 594.03024,335.66532 L 594.65291,333.7973 L 594.96425,332.24062 L 588.73752,334.73131 L 580.9541,337.222 L 577.21806,338.77869 L 566.32128,345.31676 L 546.0844,357.45888 L 523.9795,370.22368 L 488.17579,390.46056 L 460.1555,406.33873 L 441.78664,416.92417 L 438.98461,418.79219 L 435.55991,421.28289 L 433.06922,423.46224 L 429.33318,424.39625 L 428.39917,424.39625"
         style="fill:none;fill-rule:evenodd;stroke:#000000;stroke-width:1px;stroke-linecap:butt;stroke-linejoin:miter;stroke-opacity:1" />
      <path
         id="path2310"
         d="M 327.52611,329.43859 L 339.3569,314.80577 L 349.00833,301.41829 L 367.37719,276.51137 L 376.09462,264.68058 L 379.83066,259.38785 L 380.14199,258.14251 L 379.20798,256.89716 L 377.02863,256.89716 L 364.8865,255.65181 L 316.94066,250.67043 L 283.00497,246.93439 L 255.29602,243.50969 L 231.63443,240.70766 L 208.59552,237.59429 L 197.69874,235.72627 L 182.44325,232.92424 L 169.98979,230.12221 L 160.33835,227.94286 L 150.06424,224.82949 L 147.88489,223.89548 L 133.87474,236.34894 L 115.81722,251.60444 L 104.92044,261.25587 L 96.825684,268.72795 L 90.598952,274.33201 L 87.796922,276.8227 L 86.551576,278.37939"
         style="fill:none;fill-rule:evenodd;stroke:#000000;stroke-width:1px;stroke-linecap:butt;stroke-linejoin:miter;stroke-opacity:1" />
      <path
         id="path2313"
         d="M 215.75627,374.27106 L 210.15221,373.64839 L 205.7935,373.64839 L 201.12345,373.64839 L 197.69874,374.27106 L 195.20805,373.95972 L 193.02869,373.02571"
         style="fill:none;fill-rule:evenodd;stroke:#000000;stroke-width:1px;stroke-linecap:butt;stroke-linejoin:miter;stroke-opacity:1" />
      <path
         id="path2315"
         d="M 70.362072,333.48596 L 72.230092,334.10864"
         style="fill:none;fill-rule:evenodd;stroke:#000000;stroke-width:1px;stroke-linecap:butt;stroke-linejoin:miter;stroke-opacity:1" />
      <path
         sodipodi:nodetypes="cccccccccccccccccccccccccccccccccccccccccccccccccccccccccccccccccccccccccccccccccccccccccccccccccccccccccccccccccccccccccccccccccccccccccccccccccccccccccccccccc"
         id="path2318"
         d="M 379.83066,259.07652 L 388.23674,247.8684 L 397.88818,234.48092 L 414.38902,210.81934 L 428.7105,189.02578 L 444.27733,165.3642 L 452.37209,153.53341 L 458.59882,145.43866 L 465.13689,137.96658 L 470.11827,133.29653 L 474.78832,129.24915 L 479.14703,126.75846 L 485.99644,123.64509 L 495.64787,120.84306 L 505.61064,118.35237 L 512.46005,117.41836 L 523.9795,116.79569 L 533.94228,116.48435 L 542.6597,116.79569 L 548.5751,117.10703 L 560.09455,118.66371 L 566.94396,120.22039 L 573.48202,122.08841 L 581.88811,125.51311 L 589.36019,129.24915 L 594.96425,132.98519 L 600.56831,137.3439 L 603.37034,140.14593 L 607.10638,144.81598 L 610.21974,149.48603 L 613.64445,156.0241 L 617.69182,164.11885 L 621.42786,171.59093 L 626.72058,181.5537 L 628.27727,186.84642 L 629.83395,189.95979 L 631.39063,194.3185 L 632.63598,199.29989 L 634.81533,208.63999 L 635.74934,215.17806 L 636.99469,219.22543 L 637.61736,222.3388 L 639.17405,228.25419 L 640.10806,232.92424 L 640.41939,238.83964 L 640.73073,244.4437 L 641.3534,248.80241 L 641.97608,253.47246 L 642.91009,258.45384 L 643.53276,264.99191 L 645.40078,267.17127 L 646.33479,267.17127 L 646.64613,268.72795 L 646.33479,272.77533 L 645.71212,274.02067 L 645.08944,281.49275 L 644.46677,288.03082 L 642.91009,294.56889 L 639.79672,300.48428 L 638.55137,302.3523 L 640.10806,295.19156 L 641.3534,290.83285 L 641.97608,285.85146 L 641.97608,280.87008 L 641.66474,277.44538 L 641.04207,274.33201 L 640.10806,271.84132 L 638.55137,269.35062 L 636.06068,267.17127 L 633.25865,267.17127 L 630.14529,268.10528 L 625.78657,270.59597 L 622.36187,275.57736 L 619.2485,279.62473 L 615.8238,285.22879 L 613.64445,290.21018 L 610.53108,297.37092 L 607.10638,305.77701 L 603.059,315.11711 L 600.56831,321.0325 L 597.45494,328.19324 L 594.65291,332.86329 L 590.2942,334.41997 L 589.04885,334.73131 L 591.85088,327.88191 L 594.03024,322.90052 L 596.2096,317.29646 L 599.01163,310.44706 L 602.43633,302.3523 L 604.92702,295.19156 L 605.86103,289.89884 L 608.35172,283.67211 L 612.08776,275.26602 L 615.8238,267.17127 L 619.55984,257.51983 L 621.11652,251.2931 L 620.80519,244.75503 L 619.87118,239.46231 L 619.87118,235.41493 L 619.55984,229.81088 L 618.62583,223.89548 L 618.00316,220.47078 L 617.06915,214.55538 L 616.13514,211.13068 L 615.20113,207.70598 L 613.64445,203.96994 L 611.77643,200.54523 L 609.59707,197.43187 L 608.04039,194.94118 L 604.30435,191.51647 L 605.86103,188.71444 L 606.4837,184.04439 L 607.10638,175.94964 L 607.10638,168.7889 L 605.86103,158.51479 L 604.30435,151.66539 L 601.81365,144.50465 L 599.6343,141.07994 L 594.65291,138.27791 L 589.04885,136.40989 L 583.75613,134.85321 L 579.08608,132.98519 L 575.66138,132.05118 L 575.35004,132.05118 L 581.88811,141.39128 L 585.00148,147.92935 L 589.98286,157.89212 L 594.03024,166.29821 L 599.32296,177.81766 L 602.43633,186.53509 L 604.30435,191.51647 L 602.12499,194.94118 L 600.56831,196.49786 L 597.45494,198.98855 L 591.85088,201.47924 L 580.02009,206.14929 L 561.96257,213.93271 L 551.68846,218.29142 L 551.06579,216.11207 L 550.13178,214.55538 L 548.5751,213.93271 L 547.32975,204.59261 L 545.46173,195.56385 L 542.97104,183.73306 L 540.79168,175.94964 L 538.30099,167.23222 L 535.49896,159.13747 L 531.76292,148.24069 L 527.40421,136.72123 L 523.9795,129.87183 L 521.17747,124.26777 L 528.02688,123.95643 L 533.3196,123.64509 L 541.72569,123.64509 L 551.06579,123.95643 L 558.8492,124.26777 L 566.63262,125.51311 L 569.74598,126.75846 L 572.85935,128.93782 L 575.35004,131.73985"
         style="fill:none;fill-rule:evenodd;stroke:#000000;stroke-width:1px;stroke-linecap:butt;stroke-linejoin:miter;stroke-opacity:1" />
      <path
         id="path2320"
         d="M 529.8949,131.11717 L 540.79168,130.4945 L 548.88643,130.18316 L 558.8492,130.18316 L 566.32128,130.80584 L 571.30267,131.73985 L 573.48202,133.9192 L 576.28405,138.90059 L 579.70876,144.50465 L 584.06747,153.22207 L 586.24682,159.13747 L 589.67153,167.85489 L 592.78489,178.75167 L 593.40757,183.42172 L 595.58692,192.45048 L 594.65291,195.25251 L 588.11484,197.74321 L 572.54801,203.6586 L 556.04717,210.81934 L 554.80183,211.13068 L 554.49049,206.77197 L 553.55648,199.92256 L 551.68846,193.07316 L 548.88643,182.17638 L 547.01841,175.01563 L 543.59371,164.74153 L 540.48034,156.33544 L 536.7443,146.99534 L 532.38559,138.27791 L 529.8949,131.11717 z "
         style="fill:none;fill-rule:evenodd;stroke:#000000;stroke-width:1px;stroke-linecap:butt;stroke-linejoin:miter;stroke-opacity:1" />
      <path
         id="path2322"
         d="M 551.9998,217.98008 L 542.03703,222.02746 L 526.78153,229.1882 L 513.08272,235.1036 L 504.98797,238.83964 L 503.11995,239.77365 L 502.80861,237.59429 L 500.9406,235.1036 L 498.13857,232.92424 L 494.71386,231.36756 L 491.91183,230.12221 L 488.48713,229.81088 L 484.75109,229.1882 L 475.72233,228.56553 L 468.25025,228.56553 L 463.89154,229.49954 L 458.28748,231.6789 L 455.48545,232.61291 L 454.86278,224.51815 L 454.2401,217.98008 L 452.68342,207.39464 L 450.50407,197.12053 L 449.88139,194.00717 L 457.35347,182.17638 L 466.69357,168.16623 L 471.67495,160.69415 L 476.03367,154.77875 L 480.39238,150.10871 L 485.99644,144.81598 L 490.35515,142.32529 L 495.33654,139.52326 L 501.87461,136.72123 L 508.10134,134.54187 L 514.32807,133.29653 L 517.75277,132.36252 L 519.93213,136.72123 L 523.66817,145.74999 L 527.71554,157.58078 L 531.14025,169.10024 L 533.63094,180.93103 L 535.18762,187.4691 L 536.43297,194.3185 L 537.36698,199.92256 L 538.30099,206.77197 L 538.92366,216.73474 L 538.92366,217.66875 L 525.84752,222.96147 L 504.05396,232.61291 L 500.31792,234.16959"
         style="fill:none;fill-rule:evenodd;stroke:#000000;stroke-width:1px;stroke-linecap:butt;stroke-linejoin:miter;stroke-opacity:1" />
      <path
         id="path2324"
         d="M 520.86614,124.26777 L 511.2147,125.20178 L 501.56327,127.0698 L 493.77985,130.4945 L 486.30777,134.23054 L 480.39238,138.58925 L 474.16565,145.12732 L 467.31624,152.91073 L 461.40085,161.9395 L 455.48545,170.34558 L 449.57006,179.99702 L 445.21134,187.15776 L 443.34332,192.13915 L 442.72065,197.74321 L 442.09798,203.6586 L 441.78664,209.574 L 441.78664,218.91409 L 441.78664,227.32018 L 441.4753,252.53845 L 441.78664,261.25587 L 441.16397,265.92592 L 440.85263,269.35062 L 447.70204,266.23726 L 454.55144,263.43523 L 458.91015,260.6332 L 465.13689,260.6332 L 472.60896,260.01053 L 483.50575,258.45384 L 492.53451,256.58582 L 499.07258,253.16112 L 500.9406,251.2931 L 502.49728,246.62305 L 502.80861,243.50969 L 503.11995,239.46231 L 499.07258,241.64167 L 496.27055,243.19835 L 490.97782,244.13236 L 483.81708,245.06637 L 476.345,246.31172 L 469.18426,247.24573 L 467.62758,248.17974 L 471.67495,251.2931 L 477.27901,253.16112 L 482.57174,252.84978 L 487.55312,251.60444 L 496.27055,249.73642 L 499.69525,248.80241 L 502.80861,245.68904 L 502.80861,246.00038"
         style="fill:none;fill-rule:evenodd;stroke:#000000;stroke-width:1px;stroke-linecap:butt;stroke-linejoin:miter;stroke-opacity:1" />
      <path
         id="path2326"
         d="M 465.13689,230.12221 L 462.33486,233.23558 L 459.84416,235.41493 L 455.17411,238.83964 L 451.43808,241.33033 L 448.32471,242.26434 L 445.83402,242.88701 L 445.52268,242.88701 L 446.14535,240.08498 L 448.63605,237.28295 L 451.74941,234.16959 L 455.17411,232.30157 L 455.17411,231.99023"
         style="fill:none;fill-rule:evenodd;stroke:#000000;stroke-width:1px;stroke-linecap:butt;stroke-linejoin:miter;stroke-opacity:1" />
      <path
         id="path2328"
         d="M 445.21134,243.19835 L 445.21134,246.62305 L 445.52268,249.11375 L 446.14535,251.60444 L 447.3907,254.7178 L 448.94738,257.2085 L 450.8154,260.32186 L 453.30609,260.6332 L 458.28748,260.6332"
         style="fill:none;fill-rule:evenodd;stroke:#000000;stroke-width:1px;stroke-linecap:butt;stroke-linejoin:miter;stroke-opacity:1" />
      <path
         id="path2330"
         d="M 449.57006,194.62984 L 443.65466,203.6586 L 437.42793,213.62137 L 428.08783,228.25419 L 419.68174,242.57568 L 414.07768,252.53845 L 410.34164,258.14251 L 409.0963,260.94454 L 409.0963,263.12389 L 409.40763,264.99191 L 410.03031,266.54859 L 413.45501,267.17127 L 418.74773,269.03929 L 423.41778,269.9733 L 429.64451,270.90731 L 435.87125,270.90731 L 441.4753,269.35062 L 440.85263,271.52998 L 441.16397,272.77533 L 441.16397,274.64335 L 441.78664,277.13404 L 442.72065,280.87008 L 443.03199,284.91745 L 443.65466,292.0782 L 445.52268,313.24909 L 445.21134,322.90052 L 445.21134,326.9479 L 445.21134,330.99527 L 445.21134,336.28799 L 445.21134,342.51473 L 445.52268,346.87344 L 445.52268,354.03418 L 445.52268,360.26091 L 445.21134,368.667 L 444.90001,376.13908 L 444.27733,380.18646 L 444.27733,383.92249 L 444.27733,387.3472 L 443.966,393.26259 L 443.03199,399.48932 L 441.78664,408.82942 L 440.85263,412.8768 L 439.91862,417.23551 L 439.91862,418.16952"
         style="fill:none;fill-rule:evenodd;stroke:#000000;stroke-width:1px;stroke-linecap:butt;stroke-linejoin:miter;stroke-opacity:1" />
      <path
         id="path2332"
         d="M 551.68846,218.29142 L 552.31113,221.09345 L 553.86782,223.89548 L 556.04717,228.56553 L 557.91519,234.79226 L 558.8492,239.77365 L 559.47188,245.68904 L 559.78321,250.98176 L 559.16054,254.40647 L 558.53787,256.27449 L 558.53787,262.50122 L 558.22653,274.33201 L 557.91519,282.7381 L 557.29252,289.89884 L 556.04717,300.79562 L 555.11316,307.64503 L 554.80183,312.62641 L 554.80183,318.23047 L 553.86782,324.4572 L 555.11316,325.70255 L 555.73584,326.63656 L 555.73584,328.81592 L 555.4245,330.3726 L 554.80183,334.41997 L 554.17915,341.26938 L 553.24514,348.74146 L 553.24514,353.10017"
         style="fill:none;fill-rule:evenodd;stroke:#000000;stroke-width:1px;stroke-linecap:butt;stroke-linejoin:miter;stroke-opacity:1" />
      <path
         id="path2335"
         d="M 416.56838,248.49107 L 414.07768,246.62305 L 412.83234,246.00038 L 410.03031,245.37771 L 406.6056,244.13236 L 402.55823,243.19835 L 396.64283,241.33033 L 393.8408,240.70766"
         style="fill:none;fill-rule:evenodd;stroke:#000000;stroke-width:1px;stroke-linecap:butt;stroke-linejoin:miter;stroke-opacity:1" />
      <path
         sodipodi:nodetypes="ccccccccccccccccccccccccc"
         id="path2337"
         d="M 148.19622,223.89548 L 161.27236,212.9987 L 179.64122,198.36588 L 203.61414,180.30836 L 227.89839,162.87351 L 240.04052,154.77875 L 253.73933,146.684 L 266.81547,139.21192 L 279.89161,131.73985 L 287.98636,128.31514 L 297.94913,124.5791 L 305.73254,121.77707 L 316.94066,119.28638 L 332.19616,116.48435 L 343.09294,114.61633 L 364.8865,113.05965 L 391.03877,111.50297 L 410.34164,110.88029 L 426.21981,111.19163 L 450.19273,111.19163 L 475.09966,111.19163 L 494.40253,112.12564 L 514.01673,113.68232 L 531.76292,114.92767 L 542.03703,116.48435"
         style="fill:none;fill-rule:evenodd;stroke:#000000;stroke-width:1px;stroke-linecap:butt;stroke-linejoin:miter;stroke-opacity:1" />
      <path
         id="path2339"
         d="M 462.33486,135.16455 L 456.41946,142.94796 L 448.94738,151.97672 L 440.22996,164.43019 L 428.39917,182.17638 L 409.71897,208.95132 L 401.31288,221.40479 L 392.59546,234.79226 L 389.48209,239.46231 L 356.16907,235.1036 L 337.80022,232.92424 L 309.46858,230.43355 L 261.83408,224.82949 L 230.38909,220.47078 L 201.12345,216.73474 L 179.64122,212.9987 L 172.48048,211.44202 L 200.50077,189.33712 L 234.7478,163.80752 L 270.86285,139.52326 L 291.7224,128.62648 L 321.29938,128.31514 L 342.7816,128.00381 L 369.86789,128.00381 L 395.08615,128.31514 L 426.21981,130.80584 L 453.30609,133.9192 L 462.33486,135.16455 z "
         style="fill:none;fill-rule:evenodd;stroke:#000000;stroke-width:1px;stroke-linecap:butt;stroke-linejoin:miter;stroke-opacity:1" />
      <path
         id="path2341"
         d="M 389.17075,239.15097 L 394.15214,240.70766"
         style="fill:none;fill-rule:evenodd;stroke:#000000;stroke-width:1px;stroke-linecap:butt;stroke-linejoin:miter;stroke-opacity:1" />
      <path
         id="path2343"
         d="M 355.5464,235.41493 L 348.697,237.28295 L 338.11155,244.13236 L 331.57348,250.04775 L 330.32814,251.91577"
         style="fill:none;fill-rule:evenodd;stroke:#000000;stroke-width:1px;stroke-linecap:butt;stroke-linejoin:miter;stroke-opacity:1" />
      <path
         id="path2345"
         d="M 171.54647,211.44202 L 164.07439,210.50801"
         style="fill:none;fill-rule:evenodd;stroke:#000000;stroke-width:1px;stroke-linecap:butt;stroke-linejoin:miter;stroke-opacity:1" />
      <path
         id="path2347"
         d="M 600.56831,296.74825 L 595.58692,299.86161 L 583.75613,306.71102 L 569.43465,315.42844 L 554.17915,324.4572 L 543.59371,330.99527 L 520.5548,343.44874 L 499.69525,354.34552 L 475.09966,367.73299 L 452.99476,379.56378 L 450.19273,381.74314 L 449.88139,382.98848 L 450.8154,384.23383 L 452.68342,385.79051 L 454.2401,386.41319 L 461.08951,382.98848 L 475.09966,375.82774 L 497.20456,363.68562 L 531.76292,345.00542 L 550.13178,334.73131 L 562.89658,327.57057 L 585.31281,314.1831 L 594.65291,309.20171 L 599.32296,305.15433 L 601.50232,300.48428 L 600.56831,296.74825 z "
         style="fill:none;fill-rule:evenodd;stroke:#000000;stroke-width:1px;stroke-linecap:butt;stroke-linejoin:miter;stroke-opacity:1" />
      <path
         id="path2349"
         d="M 551.06579,237.04945 L 549.66477,236.89378 L 547.95242,236.89378 L 546.16224,237.36079 L 544.76122,238.37263 L 542.97104,240.08498 L 541.41435,241.953 L 539.4685,244.59936 L 538.37882,246.38955 L 537.44481,248.02407 L 536.58864,249.58075 L 535.73246,251.44877 L 535.57679,252.92762 L 535.42112,254.56213 L 535.57679,257.28633 L 535.88813,258.99868 L 536.5108,259.77702 L 537.75615,260.6332 L 539.15716,260.8667 L 541.88136,260.24403 L 544.06072,259.31002 L 546.31791,257.909 L 548.8086,255.96315 L 551.37713,253.70596 L 553.24515,251.21527 L 554.41266,248.95808 L 555.11316,245.61121 C 555.11316,245.61121 555.191,243.27618 555.191,242.80918 C 555.191,242.34217 554.87966,240.70766 554.72399,240.39632 C 554.56833,240.08498 553.40081,238.5283 553.40081,238.5283 L 551.06579,237.04945 z "
         style="fill:none;fill-rule:evenodd;stroke:#000000;stroke-width:1px;stroke-linecap:butt;stroke-linejoin:miter;stroke-opacity:1" />
      <path
         id="path2351"
         d="M 554.10132,240.55199 L 553.24515,242.03084 L 551.9998,243.27618 L 549.66477,245.06637 L 547.56325,246.38955 L 545.8509,247.40139 L 543.74938,248.02407 L 541.41435,249.03591 L 539.0015,249.58075 L 537.60048,249.34725 L 537.05564,249.11374 L 536.97781,248.95808"
         style="fill:none;fill-rule:evenodd;stroke:#000000;stroke-width:1px;stroke-linecap:butt;stroke-linejoin:miter;stroke-opacity:1" />
      <path
         id="path2353"
         d="M 554.56833,246.23388 L 553.32298,248.1019 L 549.97611,250.8261 C 549.97611,250.8261 546.62924,252.38278 546.31791,252.38278 C 546.00657,252.38278 542.27053,254.40647 542.27053,254.40647 L 539.0015,255.72965 L 536.89997,257.28633 L 535.88813,258.22034"
         style="fill:none;fill-rule:evenodd;stroke:#000000;stroke-width:1px;stroke-linecap:butt;stroke-linejoin:miter;stroke-opacity:1" />
      <path
         id="path2355"
         d="M 553.94565,241.01899 L 554.33482,239.77365"
         style="fill:none;fill-rule:evenodd;stroke:#000000;stroke-width:1px;stroke-linecap:butt;stroke-linejoin:miter;stroke-opacity:1" />
      <path
         id="path2357"
         d="M 608.58523,207.47247 L 606.71721,207.00547 L 604.14868,207.78381 L 602.04716,209.72966 L 600.56831,212.92086 L 599.78997,215.87856 L 599.47863,219.45893 L 599.94564,222.41663 L 601.03531,223.89548 L 602.20283,225.06299 L 603.75951,225.37433 L 605.39403,224.59599 C 605.39403,224.59599 606.95071,223.66198 607.26205,223.42847 C 607.57338,223.19497 608.89656,221.79396 608.89656,221.79396 L 609.98624,220.15944 L 611.54292,217.20174 L 612.32127,214.86672 L 612.32127,212.9987 L 611.38726,210.74151 L 610.45325,209.10699 L 608.58523,207.47247 z "
         style="fill:none;fill-rule:evenodd;stroke:#000000;stroke-width:1px;stroke-linecap:butt;stroke-linejoin:miter;stroke-opacity:1" />
      <path
         id="path2359"
         d="M 611.30942,210.58584 L 610.14191,212.29819 L 608.89656,213.62137 L 607.02854,214.86672 L 605.08269,215.80073 L 602.98117,215.9564 L 600.95748,216.03423 L 600.17914,215.80073 L 600.02347,215.87856"
         style="fill:none;fill-rule:evenodd;stroke:#000000;stroke-width:1px;stroke-linecap:butt;stroke-linejoin:miter;stroke-opacity:1" />
      <path
         id="path2361"
         d="M 612.32127,214.24404 L 610.76458,215.10022 L 608.89656,217.12391 L 606.95071,217.98008 L 604.84919,218.99193 L 603.44817,220.39294 L 601.50232,221.63829 L 600.33481,222.8058"
         style="fill:none;fill-rule:evenodd;stroke:#000000;stroke-width:1px;stroke-linecap:butt;stroke-linejoin:miter;stroke-opacity:1" />
      <path
         id="path2364"
         d="M 383.5667,399.64499 L 381.85434,400.579 L 378.89665,402.44702 L 376.71729,404.15937 L 374.38227,406.18306 L 372.51425,408.36242 L 369.71222,411.16445 L 366.91019,415.21182 L 363.01848,421.74989 L 361.30613,425.79727 L 359.12677,429.84464 L 357.25875,434.9817 L 356.01341,438.25073 L 354.45672,442.92078 L 352.90004,451.01553 L 351.96603,459.26595 L 351.49903,466.27103 L 352.1217,474.05444 L 352.90004,479.03583 L 353.98972,483.23887 L 355.39073,487.13058 L 357.25875,490.24394 L 359.12677,493.20164 L 361.77313,496.00367 L 363.95249,497.87169 L 367.68853,499.73971 L 371.2689,500.20672 L 374.2266,500.20672 L 378.58531,499.42837 L 381.23167,498.65003 L 384.96771,496.78201 L 388.85942,493.66865 L 392.12845,490.55528 L 395.39749,486.81924 L 397.88818,483.55021 L 400.37887,479.50283 L 402.55823,476.07813 L 405.20459,470.78541 L 407.53961,465.33702 L 409.0963,460.9783 L 410.34164,457.5536 L 411.74266,452.10521 L 412.67667,446.50115 L 413.45501,440.58576 L 413.76635,433.73635 L 413.76635,426.88695 L 413.14367,422.37256 L 412.054,416.61284 L 410.96432,413.03247 L 409.87464,410.23044 L 408.62929,408.05108 L 407.07261,405.40472 L 405.20459,402.60269 L 402.40256,400.42333 L 400.37887,399.17799 L 398.19952,398.24398 L 395.70882,397.46564 L 391.97278,397.30997 L 388.23675,397.6213 L 385.27905,398.86665 L 383.5667,399.64499 z "
         style="fill:none;fill-rule:evenodd;stroke:#000000;stroke-width:1px;stroke-linecap:butt;stroke-linejoin:miter;stroke-opacity:1" />
      <path
         sodipodi:nodetypes="ccccccccccccccccccccccccccccccccccccssscccccccc"
         id="path2384"
         d="M 422.48377,438.09506 L 423.41778,431.55699 L 423.41778,422.06123 L 422.63944,412.56546 L 421.54976,405.24905 L 420.14875,399.17799 L 417.81372,392.17291 L 414.23335,386.25752 L 410.65298,381.27613 L 405.36026,377.54009 L 398.82219,376.45042 L 392.43979,376.45042 L 386.9914,377.69576 L 380.76467,380.03079 L 376.40595,382.36581 L 370.64623,386.56886 L 366.59885,389.68222 L 361.77313,395.13061 L 356.94742,401.35734 L 353.52271,406.4944 L 349.00833,414.58915 L 344.96095,421.43856 L 341.38058,429.06631 L 338.11155,437.93939 L 335.9322,448.83617 L 334.68685,456.77526 L 334.21984,464.09167 L 333.75284,472.18642 L 333.59717,480.28117 L 334.99819,487.90892 L 337.95588,502.54174 L 342.3146,511.1035 L 347.91865,516.39622 L 354.92373,521.84461 L 364.57516,522.93429 L 373.29259,520.4436 C 373.29259,520.4436 381.69867,516.70756 382.94402,516.08489 C 384.18937,515.46222 389.79343,509.54681 390.4161,509.07981 C 391.03877,508.6128 395.24182,504.56543 395.70882,503.63142 C 396.17583,502.69741 403.02523,493.51298 403.02523,493.51298 L 407.22828,485.88523 L 411.43132,478.25749 L 415.9457,468.29471 L 419.21474,459.11028 L 420.92709,451.48254 L 422.01677,443.85479 L 422.48377,438.09506 z "
         style="fill:none;fill-rule:evenodd;stroke:#000000;stroke-width:1px;stroke-linecap:butt;stroke-linejoin:miter;stroke-opacity:1" />
      <path
         id="path2387"
         d="M 412.054,382.52148 L 407.53961,377.85143 L 404.11491,374.89373 L 400.2232,372.55871 L 395.55316,370.22368 L 390.10476,368.2 L 385.43472,367.57732 L 377.80697,366.95465 L 372.82558,367.42165 L 372.35858,367.42165"
         style="fill:none;fill-rule:evenodd;stroke:#000000;stroke-width:1px;stroke-linecap:butt;stroke-linejoin:miter;stroke-opacity:1" />
      <path
         id="path2389"
         d="M 357.41442,522.62295 C 356.79175,522.46728 348.22999,521.68894 348.22999,521.68894 L 337.95588,519.66525 L 328.77145,516.08488 L 320.83237,512.97152 L 317.09633,510.32516 C 317.09633,510.32516 315.22831,507.21179 314.76131,506.58912 C 314.2943,505.96644 311.18094,501.14073 311.18094,501.14073 L 310.09126,497.71602"
         style="fill:none;fill-rule:evenodd;stroke:#000000;stroke-width:1px;stroke-linecap:butt;stroke-linejoin:miter;stroke-opacity:1" />
      <path
         id="path2392"
         d="M 626.72058,290.67718 L 625.00823,290.83285 L 623.76289,291.61119 L 622.82888,292.5452 L 621.89487,293.79055 L 620.33818,295.9699 L 618.62583,298.77193 L 617.22482,302.04097 L 615.51247,306.55535 L 614.57846,309.82438 L 613.33311,314.6501 L 612.55477,319.63149 L 611.77643,325.70255 L 611.30942,334.57564 L 611.62076,340.80237 L 612.55477,345.93943 L 613.80011,349.05279 L 615.04546,351.38782 L 616.29081,353.10017 L 618.15883,353.87851 L 621.11652,353.41151 L 623.91855,351.54349 L 626.40925,348.11878 L 628.89994,343.44874 L 630.30095,339.09002 L 631.70197,334.57564 L 632.79165,330.06126 L 633.72566,324.30153 L 634.34833,318.0748 L 634.81534,311.53673 L 634.504,305.62134 L 634.03699,300.95129 L 633.10298,297.52659 L 631.70197,293.79055 L 630.14529,292.0782 L 628.1216,290.67718 L 626.72058,290.67718 z "
         style="fill:none;fill-rule:evenodd;stroke:#000000;stroke-width:1px;stroke-linecap:butt;stroke-linejoin:miter;stroke-opacity:1" />
      <path
         id="path2394"
         d="M 638.39571,302.04097 L 637.9287,297.05958 L 637.4617,292.85654 L 636.52769,288.96483 L 635.28234,285.22879 L 634.34833,282.89377 L 632.48031,280.40307 L 629.05561,278.06805 L 626.72058,278.06805 L 625.00823,278.37939 L 622.98454,279.46906 L 622.05053,280.40307 L 620.64952,281.80409 L 619.40417,283.36077 L 617.84749,285.54013 L 616.29081,288.34216 L 614.42279,292.0782 L 612.8661,295.81424 L 611.15375,300.01728 L 609.75274,304.37599 L 608.50739,309.98005 L 606.79504,315.58411 L 605.86103,321.96651 L 605.54969,325.70255 L 605.08269,331.77361 L 604.77135,335.50965 L 604.92702,340.49104 L 605.08269,345.62809 L 605.39403,350.45381 L 606.4837,356.83621 L 608.50739,360.88359 L 612.24343,364.46396 L 614.42279,365.7093 L 617.06915,366.02064 L 619.87118,365.2423 L 621.89487,363.99695 L 623.29588,361.97326 L 624.6969,359.79391 L 627.03192,355.9022 L 629.21128,351.07648 L 631.70197,346.40643 L 633.56999,340.33537 L 635.12667,333.7973 L 636.37202,328.34891 L 637.15036,323.36752 L 637.4617,317.91913 L 637.9287,314.49443 L 638.24004,310.29139 L 638.39571,304.99867 L 638.39571,302.04097 z "
         style="fill:none;fill-rule:evenodd;stroke:#000000;stroke-width:1px;stroke-linecap:butt;stroke-linejoin:miter;stroke-opacity:1" />
      <path
         id="path2396"
         d="M 633.56999,281.49275 L 632.32464,278.84639 L 628.5886,275.73302 L 625.1639,274.48768 L 623.14021,274.48768"
         style="fill:none;fill-rule:evenodd;stroke:#000000;stroke-width:1px;stroke-linecap:butt;stroke-linejoin:miter;stroke-opacity:1" />
      <path
         id="path2398"
         d="M 582.19945,348.58579 L 582.35512,352.16616 L 583.4448,355.43519 L 585.93549,359.79391 L 588.89319,363.68561 L 592.16222,366.02064 L 596.36526,367.26599 L 602.12499,367.57732 L 609.13007,367.88866 L 613.17744,367.73299 L 616.60214,366.33198 L 617.22482,366.17631"
         style="fill:none;fill-rule:evenodd;stroke:#000000;stroke-width:1px;stroke-linecap:butt;stroke-linejoin:miter;stroke-opacity:1" />
      <path
         id="path2405"
         d="M 176.55888,211.83626 L 171.27532,214.91834 L 165.11117,220.2019 L 158.94702,226.36605 L 158.06642,227.68694"
         style="fill:none;fill-rule:evenodd;stroke:#000000;stroke-width:1px;stroke-linecap:butt;stroke-linejoin:miter;stroke-opacity:1" />
      <path
         id="path2407"
         d="M 328.61579,231.52323 L 326.12509,228.87687 L 320.52103,225.7635 L 311.18094,220.31511 L 305.42121,216.11206 L 301.5295,214.08838 L 275.22156,210.50801 L 258.25371,208.01731 L 247.20126,207.55031 L 230.70042,207.0833 L 220.27065,206.92763 L 211.70889,207.39464 L 210.30788,208.32865 L 210.61921,210.19667 L 218.09129,209.72966 L 233.19112,210.66367 L 246.42292,211.44202 L 258.40938,213.15437 L 269.15049,215.02239 L 289.54304,218.44709 L 307.13356,221.87179 L 308.69024,221.87179 L 304.64287,218.91409 L 291.56673,216.89041 L 272.5752,213.62137 L 259.03205,211.90902 L 260.12173,210.66367 L 269.92884,211.44202 L 294.21309,215.17805 L 302.61918,216.4234 L 304.9542,219.22543 L 308.69024,222.02746 L 319.89836,231.05622 L 328.61579,231.52323 z "
         style="fill:none;fill-rule:evenodd;stroke:#000000;stroke-width:1px;stroke-linecap:butt;stroke-linejoin:miter;stroke-opacity:1" />
      <path
         id="path2409"
         d="M 255.14035,208.32865 C 255.76302,208.48432 259.65473,210.66367 259.65473,210.66367 L 258.09804,211.75335 L 251.55998,207.86164 L 255.14035,208.32865 z "
         style="fill:none;fill-rule:evenodd;stroke:#000000;stroke-width:1px;stroke-linecap:butt;stroke-linejoin:miter;stroke-opacity:1" />
      <path
         id="path2411"
         d="M 191.16067,214.55538 L 195.05238,212.53169 L 212.02023,212.68736 L 226.34171,212.9987 L 247.0456,214.86672 L 262.61243,216.4234 L 264.63611,219.3811 L 280.51428,220.93778 L 303.70886,223.42847 L 307.13356,224.98516 L 308.06757,226.54184 L 307.4449,227.63152 L 299.19448,227.00885 C 299.19448,227.00885 268.83916,223.11714 268.06082,222.8058 C 267.28247,222.49447 252.80532,221.24912 252.80532,221.24912 L 235.68181,219.53677 L 217.77995,217.35741 L 219.0253,215.80073 L 231.63443,216.57907 L 248.60228,218.13575 L 256.23002,219.06976 L 256.38569,217.35741 L 247.9796,216.26773 L 227.12005,214.55538 L 203.92548,214.55538 L 199.8781,216.11206 L 191.16067,214.55538 z "
         style="fill:none;fill-rule:evenodd;stroke:#000000;stroke-width:1px;stroke-linecap:butt;stroke-linejoin:miter;stroke-opacity:1" />
      <path
         id="path2413"
         d="M 257.00837,217.35741 C 257.94238,217.35741 263.2351,217.35741 263.2351,217.35741 L 265.10312,220.00377 L 256.07436,219.06976 L 257.00837,217.35741 z "
         style="fill:none;fill-rule:evenodd;stroke:#000000;stroke-width:1px;stroke-linecap:butt;stroke-linejoin:miter;stroke-opacity:1" />
      <path
         sodipodi:nodetypes="cccccccccccccccccccc"
         id="path2416"
         d="M 597.76628,143.2593 L 593.7189,141.39128 L 589.98286,139.83459 L 585.93549,138.58925 L 581.88811,137.3439 L 580.02009,136.40989 L 584.06747,141.07994 L 588.11484,148.24069 L 591.22821,154.46742 L 593.7189,160.07148 L 598.07762,170.65692 L 602.74766,182.17638 L 603.68167,184.9784 L 605.23836,179.68568 L 605.23836,173.14761 L 604.61568,165.3642 L 603.99301,158.20346 L 602.74766,152.91073 L 600.87965,146.99534 L 597.76628,143.2593 z "
         style="fill:none;fill-rule:evenodd;stroke:#000000;stroke-width:1px;stroke-linecap:butt;stroke-linejoin:miter;stroke-opacity:1" />
      <path
         sodipodi:nodetypes="ccccccccccccccccccccccccccccccc"
         id="path2418"
         d="M 288.2977,340.64671 L 282.07096,341.58072 L 275.84423,343.1374 L 268.99483,345.93943 L 264.63611,348.74146 L 262.45676,350.92081 L 259.34339,354.96819 L 256.23002,359.94958 L 254.67334,365.2423 L 253.428,369.28967 L 253.428,372.71438 L 254.05067,374.89373 L 254.98468,378.0071 L 257.16403,381.12047 L 259.34339,383.92249 L 262.45676,386.10185 L 266.1928,386.41319 L 270.55151,386.10185 L 275.53289,385.79051 L 280.20294,384.54517 L 286.42968,381.4318 L 293.27908,376.45042 L 299.19448,370.84636 L 303.86453,363.99695 L 306.66655,357.14755 L 306.66655,351.85482 L 304.79854,346.5621 L 301.0625,343.44874 L 296.08111,341.26938 L 291.41106,340.95804 L 288.2977,340.64671 z "
         style="fill:none;fill-rule:evenodd;stroke:#000000;stroke-width:1px;stroke-linecap:butt;stroke-linejoin:miter;stroke-opacity:1" />
      <path
         sodipodi:nodetypes="cccccccccccccccccccccc"
         id="path2420"
         d="M 335.62086,344.77191 L 333.28583,345.00542 L 331.80698,345.78376 L 330.87298,346.71777 L 330.56164,347.72961 L 330.2503,348.89713 L 330.0168,350.60948 L 330.2503,352.08833 L 330.63947,353.56717 L 331.41781,355.59086 L 332.58533,357.53672 L 334.14201,358.62639 L 335.9322,359.40474 L 337.87805,359.0934 L 339.66823,357.38105 L 340.44658,355.6687 L 340.91358,353.178 L 340.44658,350.68731 L 339.74607,348.43012 L 338.50072,346.7956 L 336.94404,345.31675 L 335.62086,344.77191 z "
         style="fill:none;fill-rule:evenodd;stroke:#000000;stroke-width:1px;stroke-linecap:butt;stroke-linejoin:miter;stroke-opacity:1" />
      <path
         sodipodi:nodetypes="ccccccccccccccssccccc"
         id="path2422"
         d="M 78.690327,293.40138 L 78.612493,295.19156 L 78.145488,297.99359 L 77.44498,301.41829 L 76.199634,304.22032 L 74.25378,307.80069 L 71.296082,311.53673 L 68.338385,314.8836 L 65.614189,317.52996 L 63.045662,319.32015 L 59.932296,320.95467 L 58.842618,321.11034 L 58.297779,320.72117 L 57.986442,319.47582 C 57.986442,319.47582 59.237311,315.60817 59.776628,314.33877 C 60.431278,312.7979 62.189487,310.13572 62.422989,309.51305 C 62.532309,309.22153 65.614189,303.83115 65.614189,303.83115 L 69.116726,298.6941 L 72.152258,295.03589 L 75.18779,293.32354 L 78.690327,293.40138 z "
         style="fill:none;fill-rule:evenodd;stroke:#000000;stroke-width:1px;stroke-linecap:butt;stroke-linejoin:miter;stroke-opacity:1" />
    </g>
  </g>
</svg>
