<?xml version="1.0" encoding="UTF-8"?>
<!DOCTYPE svg  PUBLIC '-//W3C//DTD SVG 1.1//EN'  'http://www.w3.org/Graphics/SVG/1.1/DTD/svg11.dtd'>
<svg enable-background="new -508.92 -481.782 1757.92 1671.761" version="1.1" viewBox="-508.92 -481.782 1757.92 1671.761" xml:space="preserve" xmlns="http://www.w3.org/2000/svg">
	<path d="m441.86-445.29c18.702-1.781 37.73 0.301 56.607 6.92 7.527 2.639 14.791 5.87 21.429 10.348 19.414 12.117 33.714 31.441 40.648 53.151 4.251 19.596 3.637 40.693-4.888 59.107-3.069 6.138-7.025 11.844-11.571 16.982-9.664 10.696-23.02 17.328-37.142 19.739-25.444 4.344-51.961-3.777-65.321-27.274-3.548-6.239-6.127-13.029-7.616-20.05-1.605-7.568-1.514-13.117 0.787-20.383 1.186-3.745 2.684-7.394 4.523-10.866 3.875-7.316 9.045-14.508 16.787-18.048 8.778-4.014 21.336-3.907 30.328-0.754 7.496 2.629 16.409 9.68 19.425 17.166 1.188 2.95 1.476 9.463-2.65 10.736-2.87 0.885-12.905-12.564-16.046-15.011-5.229-4.001-12.117-4.297-18.414-4.683-6.57 2.773-13.845 5.592-17.778 11.935-8.593 12.754-7.207 29.986-0.909 43.421 9.253 18.551 32.123 25.462 51.537 23.302 14.527-1.296 27.894-8.98 37.147-20.142 13.345-16.505 15.141-39.352 11.117-59.494-5.183-25.53-24.689-46.627-48.536-56.357-17.028-8.343-36.419-8.98-54.97-7.684-17.96 0.159-35.533 5.138-51.492 13.14-9.707 4.547-19.005 10.003-27.326 16.755-12.799 9.685-24.507 20.892-34.351 33.578-24.189 29.054-35.783 66.269-42.921 102.8-8.525 42.535-11.367 85.979-12.003 129.29-0.296 18.187-0.136 36.351 0.273 54.538-3.524-0.091-7.025-0.091-10.526-0.068-1.023-2.637-2.046-5.274-2.933-7.957 2.114-21.12 0.455-42.353 1.546-63.518 1.66-35.033 3.91-70.179 10.526-104.69 3.842-25.916 11.276-51.264 21.552-75.362 8.002-18.823 19.642-35.851 32.964-51.287 15.709-16.414 33.282-31.486 53.538-41.989 18.178-9.426 37.243-15.44 56.659-17.29z" fill="#6DBEAC" stroke="#6DBEAC" stroke-width=".2131"/>
	<path d="m-90.157-390.56c21.415-15.05 47.741-21.824 73.634-22.756 49.423-0.682 96.823 24.097 129.7 60.085 29.69 34.191 48.582 76.271 62.699 118.9 15.686 51.31 27.008 104.08 31.395 157.59-3.956-0.477-7.889-0.955-11.822-1.409-1.205-20.983-4.319-41.784-8.593-62.336-6.911-41.489-18.119-82.318-33.214-121.58-13.345-32.691-29.849-65.018-54.879-90.366-18.596-18.141-40.58-33.441-65.427-41.58-24.098-8.593-50.423-9.412-75.498-5.32-28.758 6.411-56.652 22.825-71.929 48.627-10.617 18.051-16.027 39.966-11.14 60.653 3.41 15.8 13.299 31.372 28.985 37.169 19.051 7.184 42.671 5.979 58.494-7.889 15.118-12.231 17.596-34.873 10.594-52.128-9.434-23.438-43.399-32.668-62.699-15.8-8.707 6.456-7.025 22.233-19.415 23.916-3.592-17.027 9.207-32.827 23.893-39.625 18.778-6.866 41.875-3.797 56.561 10.389 24.507 22.484 21.574 68.724-8.048 85.615-26.235 18.846-66.2 13.663-86.342-11.594-15.959-19.483-17.437-46.945-11.48-70.497 6.206-24.961 23.688-45.694 44.535-60.062z" fill="#6DBFAB" stroke="#6DBFAB" stroke-width=".2131"/>
	<path d="m885.91-248.32c4.024-0.523 8.093-0.932 12.14-1.523-3.91 1.501-8.048 3.615-12.14 1.523z" fill="#EDF1E1" stroke="#EDF1E1" stroke-width=".2131"/>
	<path d="m772.27-214.6c14.55-0.841 28.713-5.047 43.353-5.024 21.142-0.25 42.376-0.477 63.472 1.341 15.55 2.796 31.35 4.615 46.377 9.707 15.186 5.092 31.122 8.389 45.24 16.277 15.55 6.684 29.713 16.027 44.808 23.643 9.707 4.956 16.164 14.14 24.78 20.574 11.003 8.571 22.461 16.823 30.94 28.099 11.458 15.027 26.076 28.076 33.668 45.717 4.661 10.685 12.89 19.301 17.482 30.008 5.774 12.776 9.616 26.303 15.754 38.92 5.251 10.798 8.525 22.438 10.935 34.169 5.001 23.984 11.026 48.036 10.753 72.702-0.091 19.71 0.728 39.443 0.091 59.153-1.046 13.731-3.41 27.326-4.706 41.034-3.546 21.256-10.276 41.807-17.914 61.904-5.638 20.71-17.528 38.715-27.167 57.63-11.321 21.029-27.417 38.875-43.217 56.561-20.051 22.893-46.081 39.102-70.088 57.38-10.662 8.411-23.893 12.299-35.715 18.687-19.164 10.253-39.784 17.414-60.471 23.87-10.73 3.683-21.506 7.32-32.691 9.344 0.25 1.887 0.5 3.796 0.796 5.706 12.003 1.819 22.188 8.662 33.532 12.481-0.205 0.727-0.25 1.5-0.182 2.273 21.279 12.39 41.125 27.121 59.244 43.785 8.525 8.525 13.913 19.46 20.869 29.19 16.277 20.869 24.689 46.627 30.008 72.247 8.025 25.325 7.297 52.196 6.57 78.431-1.432 17.323-3.819 35.305-12.503 50.673-8.934 15.618-14.663 33.441-28.167 46.013-16.55 19.937-35.942 38.192-59.699 49.105l-6.346 4.794-6.681 3.504c-17.05 9.798-36.147 15.959-54.856 21.779-15.232 1.614-29.986 5.32-44.763 9.139-23.734 1.955-47.604 0.659-71.384 0.978 1.046-1.159 2.114-2.296 3.183-3.433-19.71 0.455-39.147-3.547-58.221-8.002-16.527-3.91-31.622-12.322-48.309-15.641-16.573-10.844-32.327-23.006-46.627-36.715-38.693-30.349-70.338-68.587-98.823-108.44 8.048 2.842 15.777 6.547 23.097 10.98 15.482 9.389 32.759 15.3 49.923 20.869 43.012 13.754 89.48 17.209 133.92 8.821 43.49-9.571 86.001-30.031 115.24-64.427 17.437-21.483 29.781-48.218 30.372-76.226 1.159-29.099-11.162-56.72-25.53-81.318-18.687-26.78-46.808-46.49-77.794-56.402-10.003-2.728-20.142-5.07-29.667-9.253 35.669-18.551 71.02-39.716 97.686-70.429 18.528-19.778 32.509-43.444 42.353-68.633 11.776-35.237 18.164-73.043 12.367-110.08-4.16-24.439-9.139-49.105-19.869-71.634-8.275-20.597-21.324-38.784-34.782-56.266-9.889-12.822-22.438-23.234-35.396-32.805-42.353-32.918-98.096-46.49-151.09-40.466-27.69 1.205-54.402 9.844-79.795 20.438-14.322 6.229-27.326 15.072-41.944 20.597-7.479-28.508-18.869-56.607-37.329-79.818 8.821-14.299 17.255-29.008 28.485-41.603 16.8-18.801 31.372-39.67 50.287-56.516 23.666-20.483 47.286-41.262 73.521-58.471 15.845-10.617 31.85-21.37 49.878-28.031 16.391-7.775 32.282-16.868 49.764-22.143 20.895-5.908 41.06-15.228 62.975-16.752m-90.002 85.092c-30.44 5.115-55.106 32.305-58.471 62.768-5.57 36.919 21.733 74.794 58.494 81.023 26.985 5.979 56.629-5.365 72.884-27.712 15.095-19.278 18.755-46.331 10.389-69.224-10.958-33.351-49.105-54.789-83.296-46.855m202.22 2.387c-27.167 4.706-52.083 22.688-63.381 48.082-15.777 31.509-8.275 72.316 16.664 96.936 22.415 23.552 59.085 31.645 89.502 20.392 31.054-10.617 53.992-40.42 56.743-73.066 2.683-26.689-8.661-53.992-28.485-71.861-19.21-16.868-45.695-25.029-71.043-20.483m118.22 168.23c-27.781 3.41-51.992 23.779-61.586 49.832-11.299 29.44-1.637 65.132 22.688 85.115 21.006 17.937 51.946 23.052 77.567 12.663 28.735-10.844 49.423-40.443 48.741-71.293 0.477-24.029-11.753-47.559-30.963-61.767-15.958-11.981-36.714-17.21-56.447-14.55m-34.123 186.21c-18.437 3.592-32.964 18.346-39.102 35.715-5.729 19.278-0.455 41.716 14.982 55.106 20.619 20.256 58.334 18.164 76.203-4.774 17.619-19.187 16.436-51.378-1.273-70.111-12.299-14.162-32.669-20.141-50.81-15.936m-81.75 138.81c-22.779 3.91-35.146 32.145-24.007 51.992 10.003 20.119 39.943 25.007 56.038 9.525 12.072-10.639 14.777-29.508 7.252-43.512-7.161-13.958-24.165-20.96-39.283-18.005m-13.731 167.71c-19.005 4.888-32.282 25.689-28.144 44.99 2.683 18.141 20.233 33.146 38.806 31.645 20.801 1.273 39.897-17.459 39.034-38.329 1.318-25.075-25.735-46.058-49.696-38.306m27.462 110.1c-8.821 1.955-16.982 6.297-23.802 12.185-22.756 18.051-28.099 53.697-11.594 77.635 16.118 27.371 55.902 34.964 81.864 17.573 16.436-10.594 27.803-29.849 27.076-49.65 0.182-17.528-7.616-35.237-21.711-45.945-14.118-11.889-33.964-16.367-51.833-11.798m-81.955 135.83c-22.506 5.024-39.738 28.44-36.351 51.583 1.091 27.144 29.667 48.513 56.016 43.398 12.413-1.932 23.961-8.798 31.35-18.982 9.435-11.89 11.026-28.372 7.548-42.739-6.776-24.235-34.215-40.012-58.563-33.26m-124.78 32.486c-19.324 3.296-31.577 26.257-23.984 44.217 5.092 14.413 20.824 23.87 35.987 21.506 21.802-2.046 35.942-29.349 25.053-48.423-6.547-13.549-22.484-20.756-37.056-17.3z" fill="#F565A2" stroke="#F565A2" stroke-width=".4845"/>
	<path d="m682.26-129.51c34.191-7.934 72.338 13.504 83.296 46.854 8.366 22.893 4.706 49.946-10.389 69.224-16.255 22.347-45.899 33.691-72.884 27.712-36.76-6.229-64.063-44.103-58.494-81.023 3.364-30.462 28.03-57.652 58.471-62.767z" fill="#FDFEFE" stroke="#FDFEFE" stroke-width=".2131"/>
	<path d="m884.48-127.12c25.348-4.547 51.833 3.615 71.043 20.483 19.824 17.869 31.168 45.172 28.485 71.861-2.751 32.645-25.689 62.449-56.743 73.066-30.418 11.253-67.087 3.16-89.502-20.392-24.939-24.621-32.441-65.427-16.664-96.936 11.298-25.393 36.215-43.376 63.381-48.082z" fill="#FEFEFF" stroke="#FEFEFF" stroke-width=".2131"/>
	<path d="m207.27-81.293c19.665-6.297 40.307-6.502 60.744-6.456 3.501-0.023 7.002-0.023 10.526 0.068 18.846-0.591 36.988 4.66 54.97 9.525 27.326 6.866 51.764 21.551 74.862 37.215 6.115 5.115 12.163 10.321 19.005 14.481 10.207 10.798 21.142 21.165 28.985 33.941-0.318 15.8 9.48 28.622 14.868 42.739 14.072 40.307 17.05 85.342 3.183 126.13-15.845 52.015-55.447 95.504-104.6 118.19-25.28 10.298-51.833 18.733-79.363 19.369-69.77 4.615-141.02-25.098-186.67-78.09-6.729-8.252-13.117-16.8-20.415-24.598-1.341 0.477-4.024 1.455-5.365 1.932-10.685-20.847-19.505-42.921-22.916-66.223-1.955-14.572-2.637-29.281-2.387-43.944 0.114-17.664 6.275-34.487 7.366-52.015 5.843-9.412 10.526-19.46 15.232-29.463 1.955-3.797 4.069-7.502 6.297-11.117 6.343-9.685 12.913-19.255 20.619-27.917 1.887-2.001 3.865-3.956 5.843-5.888 5.365-4.024 10.094-8.798 14.254-14.049 8.571-6.07 16.914-12.481 25.416-18.642 18.869-10.409 38.124-21.048 59.539-25.186m-77.453 122.28c-15.345 5.843-26.689 21.256-27.144 37.783-1.705 22.438 17.369 43.717 39.898 44.285 21.87 2.114 43.08-15.8 44.831-37.647 2.319-18.073-8.571-36.738-25.325-43.785-10.186-4.069-21.939-4.342-32.26-0.636m179.55 34.191c-20.801 5.183-34.896 28.053-30.281 48.968 2.342 13.39 11.685 25.143 24.075 30.622 14.663 7.002 33.328 4.456 45.467-6.343 13.731-11.412 18.346-31.986 11.503-48.354-7.411-19.528-30.736-31.167-50.764-24.893m-150.54 91.73c-1.341 22.461 12.731 44.262 33.214 53.128 20.392 9.003 45.967 11.185 65.337-1.455 11.412-7.434 21.37-18.573 24.257-32.191-1.705-0.205-5.115-0.614-6.843-0.818-7.002 16.209-21.006 30.258-39.034 32.941-20.438 2.683-43.444-2.683-57.607-18.414-8.366-8.798-11.253-21.074-11.981-32.85-2.456-0.023-4.911-0.113-7.343-0.341z" fill="#FFE41B" stroke="#FFE41B" stroke-width=".4845"/>
	<path d="m108.06-23.413c3.615-5.729 8.32-10.685 14.254-14.049-4.16 5.251-8.888 10.025-14.254 14.049z" fill="#F1E581" stroke="#F1E581" stroke-width=".2131"/>
	<path d="m456.36 7.482l1 1.432c18.46 23.211 29.849 51.31 37.329 79.818 4.615 27.871 6.206 56.607 0.136 84.387-3.455 25.985-15.231 49.9-29.395 71.611-17.869 25.689-40.602 48.809-68.496 63.495-13.299 7.911-28.144 12.594-42.626 17.778-10.48 3.296-21.256 5.479-32.032 7.502-16.505 3.16-33.396 2.137-50.105 2.842-3.819 36.01-4.638 72.247-6.365 108.39-0.864 61.085 4.319 122.12 12.708 182.6 13.549 88.366 39.125 176.12 85.16 253.3 2.728 6.593 10.685 5.024 16.232 3.751 15.368-3.956 29.395-12.072 41.966-21.642 9.866-7.661 18.232-17.05 28.099-24.689-6.093 22.62-20.597 42.83-40.125 55.811-8.752 5.774-18.937 8.707-28.826 11.89 5.251 11.753 13.731 21.551 21.233 31.895 3.387 4.274 6.979 9.776 13.072 9.935 16.141 1.319 31.827-4.501 46.217-11.208 26.394-13.049 47.172-34.441 67.883-54.856-8.571 29.713-27.008 57.198-52.56 74.885-12.549 9.003-27.417 13.595-41.944 18.187 11.23 12.549 23.393 24.257 35.805 35.601 7.116 6.82 17.619 4.228 26.235 2.773 35.26-6.775 65.246-28.349 91.48-51.787 11.185-9.412 19.733-21.506 31.213-30.6-3.978 16.959-12.276 32.464-21.37 47.195-12.276 19.687-28.462 37.01-47.786 49.923-11.14 7.32-24.007 11.276-35.692 17.527 11.799 10.89 26.007 18.596 40.057 26.167 25.734 13.094 54.197 22.779 83.432 21.256 34.601-1.205 68.178-20.665 85.774-50.582 3.797-6.365 8.048-12.481 12.844-18.141 0.182 5.161 0.159 10.367-0.273 15.527-1.887 7.025-3.956 14.004-6.638 20.779-5.593 10.594-13.299 19.892-21.665 28.417-4.547 4.569-9.139 9.139-14.186 13.185-8.912 5.274-18.232 9.844-27.621 14.254-8.73 1.796-17.482 3.387-26.144 5.479-8.411 0.978-16.891 0.955-25.325 0.364-12.981-2.137-25.871-4.979-38.42-8.911-17.255-5.547-32.873-14.868-48.468-23.87-21.12-12.367-39.556-28.576-58.585-43.808-19.096-15.663-35.715-34.009-52.719-51.833-10.98-11.89-20.483-25.052-31.895-36.556-10.071-12.367-16.277-27.349-26.212-39.852-7.116-12.253-15.527-23.757-21.711-36.533-6.57-14.845-15.004-28.894-19.733-44.513-2.751-7.502-6.32-14.663-9.162-22.12-10.73-31.395-24.189-62.267-27.781-95.572-0.796 0.932-1.569 1.864-2.342 2.819-5.138-39.125-12.935-77.976-16.391-117.31-0.75 3.023-1.478 6.047-2.205 9.093 1.046-17.482-2.41-34.782-2.433-52.242-2.751-29.463-1.887-59.085-2.046-88.638 0.227-23.529-0.591-47.127 2.114-70.542 0.796-23.029 4.82-46.172 1.25-69.156-28.803-0.023-56.675-10.298-81.909-23.529-36.351-19.142-68.337-46.877-90.889-81.318-2.683-4.729-5.092-9.571-7.525-14.39 1.341-0.477 4.024-1.455 5.365-1.932 7.297 7.798 13.686 16.345 20.415 24.598 45.649 52.992 116.9 82.705 186.67 78.09 27.53-0.637 54.083-9.071 79.363-19.369 49.15-22.688 88.752-66.178 104.6-118.19 13.867-40.784 10.889-85.819-3.183-126.13-5.382-14.12-15.18-26.942-14.862-42.742z" fill="#F7B504" stroke="#F7B504" stroke-width=".2131"/>
	<path d="m-237.47 47.994c17.71-6.115 35.692-12.572 54.697-12.435 15.709-0.341 31.463 0.568 47.127-0.887 21.029 3.819 42.626 4.82 63.018 11.617 24.325 6.57 47.922 15.8 70.201 27.599 12.435 7.275 25.189 14.254 39.102 18.301-0.659 1.728 0.659-1.728 0 0l16.027 10.798c-0.25 14.663 0.432 29.372 2.387 43.944-15.391 0.432-30.69-3.183-46.081-1.478-12.935 1.319-25.939 3.16-38.42 6.934-32.486 10.708-59.608 34.828-76.317 64.427-19.255 37.01-22.87 80.932-13.163 121.24 12.14 47.172 39.761 89.502 75.839 121.92 65.109 60.039 141.56 106.6 221.11 144.95 3.501 1.773 6.934 3.637 10.412 5.502-10.435 9.48-21.142 18.914-29.213 30.599-24.029 33.896-32.236 77.408-26.553 118.22 3.865 25.507 16.141 49.809 34.282 68.155 18.892 17.073 42.671 30.804 68.701 31.623 19.346 0.796 39.42 0.568 57.607-6.843 9.093-3.524 16.777-9.73 24.029-16.118 4.729 15.618 13.163 29.668 19.733 44.513 6.184 12.776 14.595 24.279 21.711 36.533-12.117 7.684-23.757 16.118-34.828 25.257-16.641 13.322-36.647 21.074-55.47 30.668-17.05 8.48-36.101 11.526-54.674 14.8-9.207 2.001-18.596 3.274-28.031 3.319-15.823 0-31.85 0.841-47.422-2.592-10.139-2.319-20.688-2.91-30.509-6.502-21.847-7.434-40.693-21.142-59.38-34.305-5.456-3.706-8.752-9.548-12.617-14.709-4.91-6.911-11.367-12.595-16.05-19.665-16.48-27.371-27.62-58.812-25.937-91.162-1.614-31.509 3.546-62.972 13.572-92.799 8.434-20.369 20.619-38.988 33.759-56.607 9.025-12.117 21.37-21.029 32.555-30.94 4.456-3.797 7.184-9.025 9.935-14.072-12.14-0.318-24.416-0.023-36.26-2.933-6.115-1.432-12.322-2.296-18.551-2.773-16.732-0.932-31.6-9.639-47.968-12.435-22.006-3.433-42.535-12.299-63.631-19.028-21.415-6.934-41.58-17.028-61.676-27.053-9.548-4.82-19.756-8.411-28.644-14.481-16.709-11.412-33.669-22.438-50.537-33.646-22.915-16.846-44.376-35.737-63.563-56.766-25.939-23.416-45.013-53.242-61.654-83.66-6.866-16.937-15.118-33.418-19.528-51.219-2.842-10.389-7.707-20.278-8.548-31.122-1.478-19.005-2.683-38.102-1.591-57.152 2.705-25.734 9.366-50.832 16.755-75.544 6.115-11.594 12.981-22.87 19.71-34.146 14.413-17.209 28.644-35.283 47.718-47.627 17.889-11.822 35.417-25.621 56.832-30.213m74.021 27.212c-25.734 2.933-45.99 27.94-44.694 53.651 0.364 25.553 21.597 48.582 46.99 51.219 25.075 3.456 51.196-13.777 57.311-38.443 6.32-21.983-3.251-47.513-22.87-59.448-10.639-7.411-24.234-8.116-36.737-6.979m-102.3 122.44c-20.506 3.978-37.51 18.551-48.491 35.805-13.186 22.279-13.845 51.423-1.66 74.271 9.071 17.027 24.393 30.963 42.921 36.874 23.37 8.73 50.81 4.251 70.815-10.457 27.599-19.915 38.988-59.335 25.621-90.753-13.23-34.396-53.491-55.22-89.206-45.74m65.837 184.3c-22.484 6.706-38.215 30.463-36.01 53.788 0.477 27.485 26.144 51.014 53.47 49.832 27.78 0.637 52.378-24.53 52.196-52.083 1.046-23.575-16.095-46.445-38.965-52.083-10.049-2.251-20.734-2.205-30.691 0.546m118.4 109.69c-18.187 4.82-30.804 25.416-25.484 43.717 4.183 18.369 24.302 30.6 42.557 25.985 19.733-3.683 33.146-26.257 26.576-45.308-5.025-18.187-25.531-29.486-43.649-24.394m104.62 63.291c-14.572 6.002-18.119 26.507-8.184 38.102 7.207 9.298 21.165 10.253 31.168 5.297 11.23-6.661 15.368-22.484 8.593-33.737-5.729-11.14-20.597-14.504-31.577-9.662m56.584 128.79c-9.434 2.137-16.937 10.526-17.71 20.233-2.523 13.89 9.662 28.212 23.779 27.758 14.231 0.636 27.167-13.39 24.757-27.576-1.318-14.3-17.186-24.598-30.826-20.415m-22.529 91.685c-12.231 4.115-21.051 16.255-22.87 28.804-2.819 17.778 9.775 35.851 27.303 39.693 22.484 6.525 46.604-14.595 43.944-37.579-0.841-22.962-27.144-39.739-48.377-30.918m65.7 84.046c-21.301 5.547-37.215 27.121-35.51 49.196 0.864 23.916 22.097 45.126 46.149 45.285 17.664 0.932 35.26-8.707 43.876-24.166 6.343-10.071 6.797-22.552 5.138-34.01-2.137-12.754-11.049-23.438-21.438-30.599-10.98-7.752-25.461-8.639-38.215-5.706m118.58 20.983c-20.415 3.41-31.532 29.895-19.665 46.831 8.048 14.072 27.485 17.937 41.421 10.821 10.844-6.252 17.437-19.164 15.436-31.645-1.682-17.459-20.256-30.122-37.192-26.007z" fill="#F565A2" stroke="#F565A2" stroke-width=".4845"/>
	<path d="m129.81 40.992c10.321-3.706 22.074-3.433 32.259 0.637 16.755 7.047 27.644 25.712 25.325 43.785-1.751 21.847-22.961 39.761-44.831 37.647-22.529-0.568-41.603-21.847-39.898-44.285 0.455-16.528 11.799-31.942 27.145-37.784m-4.32 18.187c-8.639 4.047-9.594 17.346-1.614 22.597 8.411 6.866 22.574-1.114 20.847-11.912-0.137-9.231-11.344-15.369-19.233-10.685z" fill="#692911" stroke="#692911" stroke-width=".4845"/>
	<path d="m1002.7 41.105c19.733-2.66 40.489 2.569 56.447 14.55 19.21 14.209 31.441 37.738 30.963 61.767 0.682 30.85-20.006 60.449-48.741 71.293-25.621 10.389-56.561 5.274-77.567-12.663-24.325-19.983-33.987-55.675-22.688-85.115 9.594-26.052 33.806-46.422 61.586-49.832z" fill="#FEFEFE" stroke="#FEFEFE" stroke-width=".2131"/>
	<path d="m358.76 917.1c-12.117 7.684-23.757 16.118-34.828 25.257-16.641 13.322-36.647 21.074-55.47 30.668-17.05 8.48-36.101 11.526-54.674 14.8-9.207 2.001-18.596 3.274-28.031 3.319-15.823 0-31.85 0.841-47.422-2.592-10.139-2.319-20.688-2.91-30.509-6.502-21.847-7.434-40.693-21.142-59.38-34.305-5.456-3.706-8.753-9.548-12.617-14.709-4.911-6.911-11.367-12.595-16.05-19.665-16.482-27.37-27.621-58.811-25.939-91.161-1.614-31.509 3.546-62.972 13.572-92.799 8.434-20.369 20.62-38.988 33.759-56.607 9.025-12.117 21.37-21.029 32.554-30.94 4.456-3.797 7.184-9.025 9.935-14.072-12.14-0.318-24.416-0.023-36.26-2.933-6.115-1.432-12.322-2.296-18.551-2.774-16.732-0.932-31.6-9.639-47.968-12.435-22.006-3.433-42.535-12.299-63.631-19.028-21.415-6.934-41.58-17.028-61.676-27.053-9.548-4.82-19.755-8.411-28.644-14.481-16.709-11.412-33.669-22.438-50.537-33.646-22.916-16.846-44.376-35.737-63.563-56.766-25.939-23.416-45.013-53.242-61.654-83.66-6.866-16.937-15.118-33.418-19.528-51.219-2.842-10.389-7.707-20.278-8.548-31.122-1.478-19.005-2.683-38.101-1.591-57.152 2.705-25.734 9.366-50.833 16.755-75.544 6.115-11.594 12.981-22.87 19.71-34.146 14.413-17.209 28.644-35.283 47.718-47.627 17.891-11.822 35.419-25.621 56.834-30.213 17.709-6.115 35.692-12.572 54.697-12.435 15.709-0.341 31.463 0.568 47.127-0.887 21.029 3.819 42.626 4.82 63.018 11.617 24.325 6.57 47.922 15.8 70.201 27.599 12.435 7.275 25.189 14.254 39.102 18.301l16.027 10.798c0.114-17.664 6.275-34.487 7.366-52.015-3.16-1.91-6.411-3.637-9.707-5.251-7.889-5.001-17.55-2.842-26.098-1.091-0.909 0.182-2.751 0.546-3.683 0.727-3.797 1.432-7.57 2.955-11.321 4.479-2.639-6.184-5.117-12.413-7.527-18.687-4.706-7.297-11.344-13.004-17.869-18.596-8.957-2.842-18.346-5.297-27.849-4.297-9.252 0.955-16.8 7.616-26.03 8.616-7.251-7.32-12.207-17.073-21.482-22.211-10.935-6.093-24.325-9.435-36.51-5.138-11.322 2.251-19.415 10.958-29.395 15.937-9.321-4.729-16.141-14.618-27.235-15.55-10.98-1.228-22.961-1.773-32.964 3.751-6.684 3.706-12.64 8.639-17.891 14.186-3.319 4.501-6.593 9.048-9.821 13.64-8.98-3.887-18.073-8.57-28.099-8.639-10.003-0.068-19.028 4.865-27.78 9.116-5.024 5.956-10.276 11.799-14.572 18.323-1.751 3.001-3.365 6.07-4.797 9.23-0.409 2.614-0.727 5.274-0.978 7.911-10.617 0.568-20.938 3.751-30.145 9.048-5.638 2.728-10.389 6.865-14.754 11.299-6.07 6.093-11.344 13.254-13.617 21.665-4.138 11.89-0.909 24.393 1.569 36.237-15.3 3.66-28.895 13.618-35.715 27.962-2.342 6.593-3.819 13.458-4.501 20.438 0.114 6.865 1.341 13.731 3.751 20.187 3.228 5.365 6.934 10.435 10.48 15.595-2.114 2.069-4.228 4.138-6.297 6.252-12.026 11.185-19.028 27.371-17.482 43.899 2.66 16.073 13.208 29.781 27.076 37.942-6.183 12.776-12.708 26.485-10.116 41.125 2.296 20.756 19.392 37.124 39.147 42.125-3.16 15.413-4.979 32.441 3.66 46.558 8.252 16.982 27.69 25.325 45.899 24.666-0.523 8.57-1.273 17.414 1.296 25.757 4.683 14.8 16.573 26.985 31.009 32.532 9.048 2.546 18.573 1.432 27.849 1.773 3.205 16.027 8.502 33.623 23.529 42.466 13.663 10.367 31.623 8.434 47.491 5.82 4.251 15.845 13.504 31.304 29.349 37.692 14.391 7.934 31.304 4.388 45.808-1.228 5.32 9.684 10.662 20.119 20.233 26.348 8.275 5.161 17.619 9.162 27.462 9.866 11.276 0.955 21.21-5.365 31.282-9.366 6.82 8.866 13.527 18.46 23.62 23.961 8.411 5.07 18.482 5.388 27.962 6.729 0 3.319 0.046 6.638 0.091 9.957-22.37 0.955-43.399 16.868-48.082 39.125-4.251 14.345 2.024 28.463 7.684 41.375-5.252 4.047-10.639 7.911-15.527 12.39-12.14 11.208-15.823 29.235-13.004 45.035 2.842 13.39 13.117 23.097 22.506 32.282-5.865 9.503-12.23 19.301-13.413 30.69-2.205 14.277 4.138 28.667 13.572 39.147 8.025 9.071 19.96 12.822 31.168 16.345-0.205 10.708-1.228 21.802 2.319 32.168 4.933 14.777 17.687 26.303 32.395 30.963 11.162 2.091 22.643 0.705 33.85-0.455 5.456 17.596 17.982 34.51 36.692 38.965 17.755 5.365 37.079-1.523 49.809-14.413 7.707 7.207 15.459 14.936 25.484 18.824 13.072 5.593 28.508 4.115 40.83-2.728 10.639-4.91 16.982-15.209 23.12-24.643 19.346 14.072 49.127 13.163 65.859-4.683 8.048-7.366 10.935-18.164 14.527-28.031 11.208 0.705 22.734 2.114 33.714-1.114 10.73-3.456 19.233-11.23 27.076-19.028-10.07-12.361-16.277-27.342-26.211-39.846z" fill="#A7CD34" stroke="#A7CD34" stroke-width=".2131"/>
	<path d="m125.49 59.179c7.889-4.683 19.096 1.455 19.233 10.685 1.728 10.798-12.435 18.778-20.847 11.912-7.979-5.252-7.025-18.551 1.614-22.597z" fill="#F9FAF6" stroke="#F9FAF6" stroke-width=".2131"/>
	<path d="m-163.45 75.206c12.504-1.137 26.098-0.432 36.738 6.979 19.619 11.935 29.19 37.465 22.87 59.448-6.115 24.666-32.236 41.898-57.311 38.443-25.393-2.637-46.627-25.666-46.99-51.219-1.297-25.712 18.958-50.719 44.693-53.651z" fill="#FCFDFD" stroke="#FCFDFD" stroke-width=".2131"/>
	<path d="m309.36 75.183c20.028-6.275 43.353 5.365 50.764 24.893 6.843 16.368 2.228 36.942-11.503 48.354-12.14 10.798-30.804 13.345-45.467 6.343-12.39-5.479-21.733-17.232-24.075-30.622-4.615-20.915 9.48-43.785 30.281-48.968m-6.457 18.596c-8.002 2.387-11.64 13.276-6.547 19.96 5.115 9.184 21.37 6.956 23.711-3.478 3.524-9.889-7.411-20.437-17.164-16.482z" fill="#692911" stroke="#692911" stroke-width=".4845"/>
	<path d="m1208.7 80.866c4.069 23.052 1.978 46.627 2.228 69.906-1.069-0.364-3.16-1.068-4.206-1.409-3.41-9.366-9.776-17.164-16.777-24.075 12.64-11.094 19.823-27.53 18.755-44.422z" fill="#FCFCF5" stroke="#FCFCF5" stroke-width=".2131"/>
	<path d="m302.91 93.779c9.753-3.956 20.688 6.593 17.164 16.482-2.342 10.435-18.596 12.663-23.711 3.478-5.092-6.683-1.455-17.573 6.547-19.96z" fill="#FAFAF6" stroke="#FAFAF6" stroke-width=".2131"/>
	<path d="m547.75 172.53c22.825-17.596 50.355-29.008 78.954-32.418 12.958-0.477 25.984-0.909 38.92 0.296 29.622 4.933 58.357 19.073 78.158 41.989 11.662 12.822 19.255 28.644 25.962 44.444 6.502 15.436 8.389 32.214 11.026 48.627 3.046 16.868-1.25 33.805-4.706 50.264-2.478 12.413-9.003 23.484-16.414 33.555-13.572 18.983-34.851 30.827-56.243 38.965-12.572 1.932-25.303 3.228-37.965 4.433-24.143-2.592-50.128-11.662-64.336-32.577-5.638-7.866-13.095-15.413-13.958-25.553-1.432-15.209-1.364-32.077 8.48-44.717 6.411-7.911 14.231-16.232 24.711-18.096 5.342-1.046 10.457-2.887 15.436-5.115-4.115-1.887-8.366-3.387-12.708-4.592-11.39 0.068-22.893-0.386-34.146 1.364-25.712 8.321-51.128 20.847-68.997 41.693-5.956 7.616-13.299 14.277-17.596 23.075-11.799 22.779-21.392 46.695-29.031 71.156-3.274 22.756-10.071 44.808-13.367 67.587-0.909 10.548-0.705 21.165-1.569 31.736-2.887-0.091-5.774-0.159-8.639-0.227-1.523-9.935-4.751-19.551-5.956-29.531-2.342-22.665-5.524-45.331-4.388-68.178-2.342-57.243 13.572-114.3 41.398-164.09 2.705-5.433 7.161-9.616 11.867-13.276 11.163-25.621 33.055-44.604 55.107-60.813z" fill="#6CBFAD" stroke="#6CBFAD" stroke-width=".2131"/>
	<path d="m-29.413 152.39c12.481-3.774 25.484-5.615 38.42-6.934 15.391-1.705 30.69 1.91 46.081 1.478 3.41 23.302 12.231 45.376 22.916 66.223 2.432 4.82 4.842 9.662 7.525 14.39-12.049-2.251-23.825-6.32-36.192-6.57-20.892-0.318-43.444-2.023-61.995 9.548-24.302 12.367-43.012 34.873-50.4 61.154-8.821 25.689-3.046 54.083 8.116 78.09 11.412 17.937 28.372 34.51 49.991 38.534 13.481 2.137 27.303 1.796 40.807 0.182 13.868-1.273 23.984-12.003 33.237-21.301 14.095-14.936 15.095-36.715 15.686-56.107 15.027 7.207 28.804 16.868 40.693 28.576 9.162 9.071 18.778 18.028 25.234 29.372 11.89 20.688 23.779 41.739 30.19 64.882 4.297 16.777 6.57 34.009 8.98 51.151 2.182 14.936 0.864 30.077 1.887 45.104 4.251-4.547 7.457-10.116 7.502-16.505 1.091-16.027 3.751-31.85 5.888-47.741 4.592-38.443 2.228-77.499-5.911-115.3-4.865-21.347-9.889-43.626-22.825-61.744 25.234 13.231 53.106 23.507 81.909 23.529 3.569 22.984-0.455 46.127-1.25 69.156-2.705 23.416-1.887 47.013-2.114 70.542 0.159 29.554-0.705 59.176 2.046 88.638 0.023 17.459 3.478 34.76 2.433 52.242 0.727-3.046 1.455-6.07 2.205-9.093 3.456 39.329 11.253 78.181 16.391 117.31 0.773-0.955 1.546-1.887 2.342-2.819 3.592 33.305 17.05 64.177 27.781 95.572 2.842 7.457 6.411 14.618 9.162 22.12-7.252 6.388-14.936 12.595-24.029 16.118-18.187 7.411-38.261 7.638-57.607 6.843-26.03-0.818-49.809-14.55-68.701-31.623-18.141-18.346-30.418-42.648-34.282-68.155-5.683-40.807 2.523-84.319 26.553-118.22 8.07-11.685 18.778-21.12 29.213-30.599-3.478-1.864-6.911-3.728-10.412-5.502-79.545-38.352-156-84.91-221.11-144.95-36.078-32.418-63.7-74.748-75.839-121.92-9.707-40.307-6.093-84.228 13.163-121.24 16.706-29.601 43.827-53.721 76.313-64.429m212.88 506.62c8.73 6.911 18.073 13.436 24.439 22.802 9.093 13.14 18.119 26.598 24.098 41.512 3.842 10.594 5.456 23.393-0.887 33.373-9.684-9.275-18.755-22.574-33.873-21.733-15.868-2.16-27.417 12.572-31.031 26.371-1.841 8.866-3.91 18.937 0.682 27.349 6.934 13.549 16.095 27.508 30.941 33.146 11.299 2.819 23.484 2.069 34.691-0.932 24.348-8.798 40.148-34.737 40.375-60.153-0.773-15.482-5.911-30.554-13.731-43.876-11.731-23.393-31.895-41.671-54.402-54.492-6.366-4.003-14.164-3.003-21.302-3.367z" fill="#BE5B9E" stroke="#BE5B9E" stroke-width=".4845"/>
	<path d="m158.82 166.91c2.433 0.227 4.888 0.318 7.343 0.341 0.727 11.776 3.615 24.052 11.981 32.85 14.163 15.732 37.169 21.097 57.607 18.414 18.028-2.683 32.032-16.732 39.034-32.941 1.728 0.205 5.138 0.614 6.843 0.818-2.887 13.617-12.845 24.757-24.257 32.191-19.369 12.64-44.944 10.457-65.337 1.455-20.483-8.865-34.556-30.667-33.214-53.128z" fill="#612D08" stroke="#612D08" stroke-width=".2131"/>
	<path d="m-265.75 197.65c35.715-9.48 75.976 11.344 89.207 45.74 13.367 31.418 1.978 70.838-25.621 90.753-20.006 14.709-47.445 19.187-70.815 10.457-18.528-5.911-33.85-19.846-42.921-36.874-12.185-22.847-11.526-51.992 1.66-74.271 10.98-17.254 27.985-31.827 48.49-35.805z" fill="#FDFEFE" stroke="#FDFEFE" stroke-width=".2131"/>
	<path d="m-12.658 230.52c18.551-11.571 41.102-9.866 61.995-9.548 12.367 0.25 24.143 4.319 36.192 6.57 22.552 34.441 54.538 62.176 90.889 81.318 12.935 18.119 17.96 40.398 22.825 61.744 8.139 37.806 10.503 76.862 5.911 115.3-2.137 15.891-4.797 31.713-5.888 47.741-0.046 6.388-3.251 11.958-7.502 16.505-1.023-15.027 0.296-30.167-1.887-45.104-2.41-17.141-4.683-34.373-8.98-51.151-6.411-23.143-18.301-44.194-30.19-64.882-6.456-11.344-16.073-20.301-25.234-29.372-11.89-11.708-25.666-21.37-40.693-28.576-0.591 19.392-1.591 41.171-15.686 56.107-9.253 9.298-19.369 20.028-33.237 21.301-13.504 1.614-27.326 1.955-40.807-0.182-21.62-4.024-38.579-20.597-49.991-38.534-11.162-24.007-16.937-52.401-8.116-78.09 7.387-26.279 26.097-48.785 50.399-61.152z" fill="#6CBFAD" stroke="#6CBFAD" stroke-width=".2131"/>
	<path d="m968.57 227.32c18.141-4.206 38.511 1.773 50.81 15.936 17.71 18.732 18.892 50.923 1.273 70.111-17.869 22.938-55.584 25.03-76.203 4.774-15.436-13.39-20.71-35.828-14.982-55.106 6.138-17.368 20.665-32.123 39.102-35.715z" fill="#FDFEFE" stroke="#FDFEFE" stroke-width=".2131"/>
	<path d="m802.84 427.58c18.528-19.778 32.509-43.444 42.353-68.633 11.776-35.237 18.164-73.043 12.367-110.08-4.16-24.439-9.139-49.105-19.869-71.634-8.275-20.597-21.324-38.784-34.783-56.266-9.889-12.822-22.438-23.234-35.396-32.805-42.353-32.918-98.096-46.49-151.09-40.466-27.69 1.205-54.402 9.844-79.795 20.438-14.322 6.229-27.326 15.072-41.944 20.597 4.615 27.871 6.207 56.607 0.136 84.387-3.455 25.985-15.231 49.9-29.394 71.611-17.869 25.689-40.602 48.809-68.496 63.495-13.299 7.911-28.144 12.594-42.626 17.778 8.298 42.284 13.776 85.024 21.256 127.44 16.141 103.12 48.195 206.22 110.03 291.51 8.048 2.842 15.777 6.547 23.097 10.98 15.482 9.389 32.759 15.3 49.923 20.869 43.012 13.754 89.48 17.209 133.92 8.821 43.49-9.571 86.001-30.031 115.24-64.427 17.437-21.483 29.781-48.218 30.372-76.226 1.159-29.099-11.162-56.72-25.53-81.318-18.687-26.78-46.808-46.49-77.794-56.402-10.003-2.728-20.142-5.07-29.668-9.253 35.669-18.55 71.02-39.715 97.687-70.428zm-61.176 172.82c8.32 22.438 11.685 47.65 4.706 70.883-3.91 10.594-8.366 21.256-15.322 30.236-19.506 22.529-49.423 35.692-79.204 34.532-9.73-0.023-19.574-0.023-29.031-2.569-16.868-4.41-34.237-8.002-49.423-16.982-36.351-17.823-65.928-48.604-82.705-85.41-3.66-9.185-11.026-18.414-8.912-28.713 3.842-1.205 5.252 2.682 6.979 5.274 12.572 23.006 32.941 41.08 55.606 53.856 10.981 6.388 23.188 10.207 34.896 14.981 14.981 6.479 31.645 5.388 47.581 6.024 13.799 0.159 29.554-0.909 39.807-11.321 5.888-5.774 7.252-14.117 7.366-22.006-4.683 3.66-8.707 9.253-15.163 9.548-10.662 1.25-21.506 1.023-32.123-0.5-6.706-1-11.185-6.752-15.572-11.344-9.98-10.912-14.436-25.985-13.163-40.602 0.114-18.028 11.276-33.941 24.711-45.013 18.801-12.276 43.103-15.277 64.541-8.934 24.143 6.708 44.513 25.167 54.425 48.06zm34.396-274.67c-2.478 12.412-9.003 23.484-16.414 33.555-13.572 18.983-34.85 30.827-56.243 38.965-12.572 1.932-25.302 3.228-37.965 4.433-24.143-2.592-50.128-11.662-64.336-32.577-5.638-7.866-13.094-15.413-13.958-25.553-1.432-15.209-1.364-32.077 8.48-44.717 6.411-7.911 14.231-16.232 24.711-18.096 5.342-1.046 10.457-2.887 15.436-5.115-4.115-1.887-8.366-3.387-12.708-4.592-11.39 0.068-22.893-0.387-34.146 1.364-25.712 8.321-51.128 20.847-68.997 41.694-5.956 7.616-13.299 14.277-17.596 23.075-11.799 22.779-21.392 46.695-29.031 71.156-3.274 22.756-10.071 44.808-13.367 67.587-0.91 10.548-0.705 21.165-1.569 31.736-0.205 4.774-0.409 9.571-0.659 14.368-7.753-0.909-8.139-8.298-7.98-14.595-1.523-9.935-4.752-19.551-5.956-29.531-2.342-22.665-5.524-45.331-4.387-68.178-2.342-57.243 13.572-114.3 41.398-164.09 2.705-5.433 7.161-9.616 11.867-13.277 11.162-25.621 33.055-44.603 55.106-60.812 22.825-17.596 50.355-29.008 78.954-32.418 12.958-0.477 25.985-0.909 38.92 0.296 29.622 4.933 58.357 19.074 78.158 41.989 11.663 12.822 19.255 28.644 25.962 44.444 6.502 15.436 8.389 32.214 11.026 48.627 3.046 16.868-1.251 33.804-4.706 50.263z" fill="#BE5B9E" stroke="#BE5B9E" stroke-width=".4845"/>
	<path d="m322.28 333.5c10.776-2.023 21.552-4.206 32.032-7.502 8.298 42.285 13.777 85.024 21.256 127.44 16.141 103.12 48.195 206.22 110.03 291.51 28.485 39.852 60.131 78.09 98.823 108.44 14.299 13.708 30.054 25.871 46.627 36.715 12.481 12.958 27.03 23.552 41.307 34.442 12.503 10.594 24.484 21.938 35.26 34.328 14.595 18.983 29.099 40.079 29.304 65.041-4.797 5.661-9.048 11.776-12.844 18.141-17.596 29.918-51.173 49.378-85.774 50.582-29.236 1.523-57.698-8.161-83.432-21.256-14.049-7.57-28.258-15.277-40.057-26.167 11.685-6.252 24.552-10.207 35.692-17.527 19.324-12.913 35.51-30.236 47.786-49.923 9.093-14.731 17.391-30.236 21.37-47.195-11.48 9.093-20.028 21.188-31.213 30.6-26.235 23.438-56.22 45.013-91.48 51.787-8.616 1.455-19.119 4.047-26.235-2.773-12.413-11.344-24.575-23.052-35.805-35.601 14.527-4.592 29.395-9.184 41.944-18.187 25.553-17.687 43.99-45.172 52.56-74.885-20.71 20.415-41.489 41.807-67.883 54.856-14.39 6.706-30.077 12.526-46.217 11.208-6.093-0.159-9.684-5.661-13.072-9.935-7.502-10.344-15.982-20.142-21.233-31.895 9.889-3.183 20.074-6.115 28.826-11.89 19.528-12.981 34.032-33.191 40.125-55.811-9.866 7.639-18.232 17.027-28.099 24.689-12.572 9.571-26.598 17.687-41.966 21.642-5.547 1.273-13.504 2.842-16.232-3.751-46.036-77.181-71.611-164.93-85.16-253.3-8.389-60.471-13.572-121.51-12.708-182.6 1.728-36.146 2.546-72.384 6.365-108.39 16.707-0.704 33.598 0.319 50.102-2.841z" fill="#FFE41B" stroke="#FFE41B" stroke-width=".2131"/>
	<path d="m886.82 366.13c15.118-2.955 32.123 4.047 39.284 18.005 7.525 14.004 4.82 32.873-7.252 43.512-16.095 15.482-46.036 10.594-56.038-9.525-11.14-19.847 1.227-48.082 24.006-51.992z" fill="#FCFDFE" stroke="#FCFDFE" stroke-width=".2131"/>
	<path d="m-199.92 381.95c9.957-2.751 20.642-2.796 30.69-0.546 22.87 5.638 40.011 28.508 38.965 52.083 0.182 27.553-24.416 52.719-52.196 52.083-27.326 1.182-52.992-22.347-53.47-49.832-2.204-23.325 13.527-47.082 36.011-53.788z" fill="#FDFEFE" stroke="#FDFEFE" stroke-width=".2131"/>
	<path d="m-81.518 491.64c18.119-5.092 38.624 6.206 43.649 24.393 6.57 19.051-6.843 41.625-26.576 45.308-18.255 4.615-38.374-7.616-42.557-25.985-5.32-18.299 7.297-38.896 25.484-43.716z" fill="#FBFCFD" stroke="#FBFCFD" stroke-width=".2131"/>
	<path d="m449.72 508.42c2.864 0.068 5.752 0.136 8.639 0.227-0.205 4.774-0.409 9.571-0.659 14.368-7.752-0.909-8.139-8.298-7.98-14.595z" fill="#92A9BB" stroke="#92A9BB" stroke-width=".2131"/>
	<path d="m873.09 533.83c23.961-7.752 51.014 13.231 49.696 38.306 0.864 20.869-18.232 39.602-39.034 38.329-18.573 1.5-36.124-13.504-38.806-31.645-4.138-19.301 9.138-40.102 28.144-44.99z" fill="#FCFDFD" stroke="#FCFDFD" stroke-width=".2131"/>
	<path d="m622.7 561.27c18.801-12.276 43.103-15.277 64.541-8.934 24.143 6.706 44.512 25.166 54.424 48.059 8.32 22.438 11.685 47.65 4.706 70.883-3.91 10.594-8.366 21.256-15.322 30.236-19.505 22.529-49.423 35.692-79.204 34.532-9.73-0.023-19.574-0.023-29.031-2.569-16.868-4.41-34.237-8.002-49.423-16.982-36.351-17.823-65.928-48.604-82.705-85.41-3.66-9.184-11.026-18.414-8.912-28.713 3.842-1.205 5.251 2.682 6.979 5.274 12.572 23.006 32.941 41.08 55.606 53.856 10.98 6.388 23.188 10.207 34.896 14.981 14.981 6.479 31.645 5.388 47.581 6.024 13.799 0.159 29.554-0.909 39.807-11.321 5.888-5.774 7.252-14.118 7.366-22.006-4.683 3.66-8.707 9.253-15.163 9.548-10.662 1.25-21.506 1.023-32.123-0.5-6.706-1-11.185-6.752-15.573-11.344-9.98-10.912-14.436-25.985-13.163-40.602 0.116-18.028 11.278-33.941 24.713-45.012z" fill="#D7DA45" stroke="#D7DA45" stroke-width=".2131"/>
	<path d="m23.102 554.93c10.98-4.842 25.848-1.478 31.577 9.662 6.775 11.253 2.637 27.076-8.593 33.737-10.003 4.956-23.961 4.001-31.168-5.297-9.935-11.595-6.388-32.101 8.184-38.102z" fill="#FBFCFD" stroke="#FBFCFD" stroke-width=".2131"/>
	<path d="m900.55 643.93c17.869-4.57 37.715-0.091 51.833 11.799 14.095 10.708 21.893 28.417 21.711 45.945 0.728 19.801-10.639 39.056-27.076 49.65-25.962 17.391-65.746 9.798-81.864-17.573-16.505-23.938-11.162-59.585 11.594-77.635 6.82-5.889 14.981-10.231 23.802-12.186z" fill="#FDFEFE" stroke="#FDFEFE" stroke-width=".2131"/>
	<path d="m183.46 659c7.138 0.364 14.936-0.637 21.301 3.365 22.506 12.822 42.671 31.1 54.402 54.492 7.82 13.322 12.958 28.394 13.731 43.876-0.227 25.416-16.027 51.355-40.375 60.153-11.208 3.001-23.393 3.751-34.691 0.932-14.845-5.638-24.007-19.597-30.941-33.146-4.592-8.411-2.523-18.482-0.682-27.349 3.615-13.799 15.163-28.531 31.031-26.371 15.118-0.841 24.189 12.458 33.873 21.733 6.343-9.98 4.729-22.779 0.887-33.373-5.979-14.913-15.004-28.372-24.098-41.512-6.365-9.364-15.708-15.888-24.438-22.8z" fill="#D7DA45" stroke="#D7DA45" stroke-width=".2131"/>
	<path d="m79.686 683.72c13.64-4.183 29.508 6.115 30.827 20.415 2.41 14.186-10.526 28.212-24.757 27.576-14.118 0.455-26.303-13.868-23.779-27.758 0.772-9.707 8.274-18.096 17.709-20.233z" fill="#F9FCFD" stroke="#F9FCFD" stroke-width=".2131"/>
	<path d="m57.157 775.4c21.233-8.821 47.536 7.957 48.377 30.918 2.66 22.984-21.461 44.103-43.944 37.579-17.528-3.842-30.122-21.915-27.303-39.693 1.819-12.55 10.639-24.69 22.87-28.804z" fill="#FCFDFE" stroke="#FCFDFE" stroke-width=".2131"/>
	<path d="m818.6 779.77c24.348-6.752 51.787 9.025 58.562 33.259 3.478 14.368 1.887 30.85-7.548 42.739-7.388 10.185-18.937 17.05-31.35 18.982-26.348 5.115-54.924-16.255-56.016-43.398-3.386-23.143 13.846-46.558 36.352-51.582z" fill="#FCFDFE" stroke="#FCFDFE" stroke-width=".2131"/>
	<path d="m693.81 812.25c14.572-3.456 30.509 3.751 37.056 17.3 10.889 19.074-3.251 46.377-25.053 48.423-15.163 2.364-30.895-7.093-35.987-21.506-7.593-17.96 4.661-40.921 23.984-44.217z" fill="#FAFCFD" stroke="#FAFCFD" stroke-width=".2131"/>
	<path d="m122.86 859.45c12.754-2.933 27.235-2.046 38.215 5.706 10.389 7.161 19.301 17.846 21.438 30.599 1.66 11.458 1.205 23.939-5.138 34.01-8.616 15.459-26.212 25.098-43.876 24.166-24.052-0.159-45.285-21.37-46.149-45.285-1.705-22.075 14.209-43.649 35.51-49.196z" fill="#FCFDFE" stroke="#FCFDFE" stroke-width=".2131"/>
	<path d="m1206.8 149.36c-3.41-9.366-9.776-17.164-16.778-24.075 12.64-11.094 19.824-27.531 18.755-44.422-2.955-14.027-10.276-27.417-22.052-35.965-2.273-1.773-4.592-3.455-6.888-5.16 4.41-7.775 9.776-15.436 10.89-24.507 2.182-14.413-2.342-29.554-11.844-40.534-6.934-7.502-16.459-11.64-25.121-16.709 1.796-5.683 3.615-11.367 5.774-16.914 0.068-15.982-4.342-33.077-17.096-43.671-8.73-8.366-20.96-10.298-31.873-14.254-1.455-9.412 0.705-19.278-2.796-28.372-4.115-12.299-13.595-21.983-24.552-28.531-11.049-4.069-22.938-4.251-34.532-4.706-1.91-14.959-8.707-29.69-20.96-38.92-9.753-6.843-21.574-9.957-33.237-11.435-0.909 0.409-2.705 1.205-3.615 1.614-5.638 2.546-11.594 4.274-17.55 5.82-2.637-5.138-5.183-10.344-8.093-15.322-0.659-1.046-1.978-3.115-2.637-4.16-3.001-3.183-6.138-6.229-9.548-8.957-1.932-1.455-3.887-2.842-5.888-4.137-1.341-0.568-3.978-1.751-5.297-2.319-13.549-0.25-27.485-0.205-40.193 5.115-0.887 0.318-2.683 0.978-3.569 1.318-3.91 1.5-8.048 3.615-12.14 1.523-0.727-0.978-2.205-2.978-2.933-3.978-0.636-0.818-1.887-2.501-2.523-3.342-11.39-8.73-25.416-15.322-40.125-13.504-12.799 0.205-22.37 9.571-32.168 16.505-2.069 1.523-4.138 3.024-6.161 4.524-9.844-6.706-20.188-13.14-32.077-15.322-3.705-0.114-7.366-0.046-11.048 0-14.391 4.274-27.553 12.754-35.396 25.803-1.046 1.523-3.137 4.547-4.183 6.07-12.503-4.615-25.712-9.525-39.261-6.684-12.822 1.546-23.097 10.185-31.509 19.346-2.614 6.365-5.32 12.663-7.957 19.005-15.231-1.273-32.009-4.819-46.058 3.16-15.277 8.684-23.893 25.53-25.984 42.557-6.252-0.5-12.481-1.091-18.733-1.25-16.164 2.524-31.782 11.935-39.42 26.735-5.07 9.639-5.479 20.733-6.57 31.35-9.344 0.705-19.437-0.114-27.803 4.842-4.41 2.455-8.525 5.388-12.344 8.684-0.841 0.955-2.523 2.887-3.387 3.842-1.728 2.137-3.41 4.319-4.956 6.593-6.161 12.526-5.979 26.667-5.615 40.284-7.525 1.932-14.982 4.16-22.325 6.638 10.207 10.798 21.142 21.165 28.985 33.941l1 1.432c8.821-14.3 17.255-29.008 28.485-41.603 16.8-18.801 31.373-39.67 50.287-56.516 23.666-20.483 47.286-41.261 73.52-58.471 15.846-10.617 31.85-21.37 49.878-28.03 16.391-7.775 32.282-16.868 49.764-22.143 20.892-5.911 41.057-15.232 62.972-16.755 14.55-0.841 28.713-5.047 43.353-5.024 21.142-0.25 42.375-0.477 63.472 1.341 15.55 2.796 31.35 4.615 46.377 9.707 15.186 5.093 31.122 8.389 45.24 16.277 15.55 6.684 29.713 16.027 44.808 23.643 9.707 4.956 16.164 14.14 24.78 20.574 11.003 8.57 22.461 16.823 30.94 28.099 11.458 15.027 26.075 28.076 33.669 45.717 4.661 10.685 12.89 19.301 17.482 30.008 5.774 12.776 9.616 26.303 15.754 38.92 5.252 10.798 8.525 22.438 10.935 34.169 5.001 23.984 11.026 48.036 10.753 72.702-0.091 19.71 0.728 39.443 0.091 59.153-1.046 13.731-3.41 27.326-4.706 41.034-3.546 21.256-10.275 41.807-17.914 61.904-5.638 20.71-17.528 38.715-27.167 57.63-11.322 21.029-27.417 38.875-43.217 56.561-20.051 22.893-46.081 39.102-70.088 57.38-10.662 8.411-23.893 12.299-35.714 18.687-19.165 10.253-39.784 17.414-60.472 23.87-10.73 3.683-21.506 7.32-32.691 9.344 0.25 1.887 0.5 3.796 0.795 5.706 12.003 1.819 22.188 8.662 33.532 12.481-0.204 0.728-0.25 1.501-0.181 2.273 21.278 12.39 41.125 27.121 59.244 43.785 8.525 8.525 13.913 19.46 20.87 29.19 16.277 20.869 24.688 46.627 30.008 72.247 8.025 25.325 7.297 52.196 6.57 78.431-1.432 17.323-3.819 35.305-12.503 50.673-8.934 15.618-14.663 33.441-28.167 46.013-16.55 19.937-35.942 38.192-59.699 49.105l-6.346 4.794-6.681 3.504c-17.05 9.798-36.147 15.959-54.856 21.779-15.232 1.614-29.986 5.32-44.763 9.139-23.734 1.955-47.604 0.659-71.383 0.978 1.046-1.159 2.114-2.296 3.182-3.433-19.71 0.455-39.147-3.547-58.221-8.002-16.527-3.91-31.623-12.322-48.309-15.641 12.481 12.958 27.03 23.552 41.307 34.442 12.503 10.594 24.484 21.938 35.26 34.328 8.548-5.024 16.686-10.98 25.962-14.686 5.229 3.456 9.185 8.389 13.64 12.731 4.388 2.41 8.934 4.569 13.686 6.229 11.458 0.841 22.961 0.659 34.464 0.568 3.16-1.728 6.229-3.706 9.025-6.002 4.933-5.388 9.798-10.821 15.095-15.845 8.866 5.229 17.982 10.435 28.213 12.367 11.844 0.455 24.098-1.341 34.442-7.457 5.32-5.115 10.435-10.435 15.55-15.732 1.068-1.728 2.114-3.456 3.16-5.183 1.25-2.523 2.478-5.047 3.705-7.548 3.16 1.046 6.343 2.114 9.548 3.115 0.978 0.136 2.933 0.409 3.888 0.546 8.434 0.614 16.914 0.409 25.371 0.5 2.66-1.91 5.32-3.819 7.98-5.752 9.685-6.82 16.8-16.505 22.802-26.576 0.864-7.343 1.432-14.732 2.364-22.052l6.82-0.364c3.819-0.273 7.684-0.5 11.526-0.75 16.664-5.479 32.85-17.028 37.556-34.76 4.251-11.958 0.136-24.37-2.092-36.26-0.091-0.614-0.227-1.864-0.296-2.478 8.912-5.138 18.778-9.571 25.075-18.073 9.844-11.867 13.095-28.349 9.071-43.148-2.683-10.23-10.866-17.505-15.777-26.553 3.797-10.139 12.481-17.778 15.527-28.349 5.547-15.004-2.205-30.509-9.776-43.239-7.343-6.593-15.868-11.571-24.166-16.823 2.387-4.842 4.797-9.662 7.275-14.459 0.568-14.095 0.364-29.713-8.843-41.307-7.866-10.912-20.801-16.3-33.419-19.437-2.955-0.773-5.888-1.523-8.798-2.228-0.91-9.616-1.159-19.619-5.456-28.463-2.387-5.547-5.979-10.617-7.366-16.55 0.273-6.865 3.774-13.072 6.07-19.392 6.661 1.955 13.276 4.115 19.847 6.456 9.957-1.978 19.983-4.228 29.326-8.366 3.342-2.683 6.434-5.706 9.548-8.684 8.548-9.616 12.049-22.188 13.186-34.737 11.026 0.455 22.302 0 32.623-4.319 8.98-4.433 17.459-10.753 22.21-19.778 6.888-11.549 7.343-25.325 5.797-38.329 7.207-1.614 14.458-3.205 21.642-5.047 10.912-7.047 21.415-16.209 25.371-29.054 5.183-13.299 1.318-27.53-2.433-40.625 15.664-6.752 31.168-17.891 35.419-35.396 5.138-16.391-1.341-33.123-10.253-46.831 7.07-5.615 14.618-11.071 19.687-18.687 7.937-12.615 9.505-28.528 5.345-42.714z" fill="#A6CD34" stroke="#A6CD34" stroke-width=".2131"/>
	<path d="m241.44 880.43c16.937-4.115 35.51 8.548 37.192 26.007 2.001 12.481-4.592 25.393-15.436 31.645-13.936 7.116-33.373 3.251-41.421-10.821-11.867-16.936-0.75-43.421 19.665-46.831z" fill="#FCFDFE" stroke="#FCFDFE" stroke-width=".2131"/>
	<path d="m-471.2 1152.1l1.819-0.841c0.591 0.705 1.75 2.114 2.319 2.819h-4.138v-1.978z" fill="#66554D" stroke="#66554D" stroke-width=".2131"/>
</svg>
